<?xml version="1.0" standalone="no"?>
<!DOCTYPE svg PUBLIC "-//W3C//DTD SVG 20010904//EN"
 "http://www.w3.org/TR/2001/REC-SVG-20010904/DTD/svg10.dtd">
<svg version="1.0" xmlns="http://www.w3.org/2000/svg"
 width="988.000000pt" height="773.000000pt" viewBox="0 0 988.000000 773.000000"
 preserveAspectRatio="xMidYMid meet">

<g transform="translate(0.000000,773.000000) scale(0.100000,-0.100000)"
fill="#000000" stroke="none">
<path d="M250 7670 c0 -6 -8 -10 -17 -8 -13 2 -17 -3 -16 -16 1 -11 -6 -25
-14 -31 -14 -10 -13 -16 8 -48 13 -20 27 -37 32 -37 12 0 8 10 -13 37 -23 30
-27 51 -5 33 10 -9 15 -9 15 -1 0 6 -3 11 -7 11 -5 0 -9 11 -9 25 -2 31 4 32
16 3 l9 -23 0 23 c1 12 6 22 11 22 6 0 10 -10 11 -22 1 -22 1 -22 9 2 8 25 8
25 10 -5 1 -18 4 -23 7 -12 5 18 23 24 23 7 0 -6 -7 -27 -15 -47 -22 -53 -18
-65 5 -14 27 58 26 66 -14 90 -38 24 -46 26 -46 11z"/>
<path d="M620 7646 c0 -9 7 -16 16 -16 17 0 14 22 -4 28 -7 2 -12 -3 -12 -12z"/>
<path d="M829 7633 c-8 -10 -9 -14 -2 -10 8 5 13 -3 16 -25 3 -29 4 -28 5 10
2 47 0 49 -19 25z"/>
<path d="M897 7630 c-21 -30 -22 -40 -3 -40 8 0 16 -5 18 -12 8 -22 14 16 8
47 l-5 30 -18 -25z m13 -15 c0 -8 -4 -15 -10 -15 -5 0 -7 7 -4 15 4 8 8 15 10
15 2 0 4 -7 4 -15z"/>
<path d="M976 7641 c-3 -5 3 -7 14 -4 22 6 28 -12 8 -20 -10 -4 -10 -6 0 -6 6
-1 12 -8 12 -17 0 -12 -6 -15 -21 -11 -16 4 -19 3 -11 -5 20 -20 42 -1 39 34
-2 32 -28 51 -41 29z"/>
<path d="M429 7626 c10 -12 6 -15 -26 -19 l-38 -4 39 -1 c35 -2 37 -4 25 -19
-11 -15 -9 -14 9 1 21 18 21 20 6 38 -20 21 -32 25 -15 4z"/>
<path d="M510 7630 c0 -5 12 -10 28 -9 24 0 25 1 7 9 -27 12 -35 12 -35 0z"/>
<path d="M590 7618 c0 -4 -17 -9 -37 -10 l-38 -1 45 -7 45 -7 -47 -1 c-28 -1
-48 -7 -48 -13 0 -6 9 -9 20 -6 11 3 20 1 20 -4 0 -5 -10 -10 -22 -10 -19 -1
-17 -3 7 -9 17 -4 24 -8 18 -9 -18 -2 -16 -21 2 -21 10 0 15 10 15 28 l1 27
14 -30 c13 -30 13 -30 15 -5 l2 25 8 -25 c7 -23 8 -23 9 9 1 39 10 38 13 -2 3
-37 18 -22 18 19 0 28 -4 34 -22 35 -22 1 -22 1 2 8 24 7 24 8 -7 12 -18 3
-33 2 -33 -3z"/>
<path d="M81 7462 c-19 -9 -44 -30 -55 -45 l-21 -28 0 -3649 0 -3649 21 -28
c11 -15 36 -36 55 -45 32 -17 285 -18 4859 -18 4574 0 4827 1 4859 18 19 9 44
30 55 45 l21 28 0 3649 0 3649 -21 28 c-11 15 -36 36 -55 45 -32 17 -285 18
-4859 18 -4574 0 -4827 -1 -4859 -18z m9719 -10 c20 -10 42 -32 52 -52 17 -33
18 -229 18 -3660 0 -3431 -1 -3627 -18 -3660 -10 -20 -32 -42 -52 -52 -33 -17
-286 -18 -4860 -18 -4574 0 -4827 1 -4860 18 -20 10 -42 32 -52 52 -17 33 -18
229 -18 3660 0 3431 1 3627 18 3660 10 20 32 42 52 52 33 17 286 18 4860 18
4574 0 4827 -1 4860 -18z"/>
<path d="M483 7036 c3 -8 9 -31 13 -50 8 -44 22 -47 31 -6 8 43 20 45 27 5 9
-47 21 -44 35 9 13 55 13 56 1 56 -5 0 -10 -11 -10 -25 0 -31 -17 -33 -22 -3
-5 35 -26 32 -36 -4 l-9 -33 -7 33 c-4 17 -12 32 -18 32 -6 0 -8 -6 -5 -14z"/>
<path d="M630 7026 c0 -16 7 -27 21 -31 23 -8 20 -31 -4 -29 -9 1 -14 -2 -11
-7 8 -14 30 -11 45 7 11 14 10 20 -14 40 -32 27 -35 38 -7 31 11 -3 20 -1 20
4 0 5 -11 9 -25 9 -20 0 -25 -5 -25 -24z"/>
<path d="M2096 7035 c-3 -9 4 -24 19 -37 28 -24 24 -42 -8 -33 -20 5 -20 5 -4
-5 10 -7 25 -9 33 -6 21 8 17 44 -6 56 -11 6 -20 16 -20 22 0 5 9 8 20 5 11
-3 20 -1 20 4 0 15 -48 10 -54 -6z"/>
<path d="M2190 7039 c-11 -8 -12 -12 -2 -16 6 -2 12 -20 12 -39 0 -21 4 -33
10 -29 12 7 14 95 3 95 -5 0 -15 -5 -23 -11z"/>
<path d="M410 6800 l0 -90 135 0 135 0 0 40 0 40 540 0 540 0 0 -45 0 -45 108
0 c67 0 112 -4 119 -11 9 -9 51 14 165 89 84 56 150 102 145 102 -4 0 -64 -38
-134 -85 -119 -79 -128 -83 -145 -68 -17 15 -19 15 -36 0 -15 -13 -39 -17
-115 -17 l-97 0 0 45 0 45 -545 0 -545 0 0 45 0 45 -135 0 -135 0 0 -90z m260
0 l0 -80 -125 0 -125 0 0 80 0 80 125 0 125 0 0 -80z m1346 -81 c10 -17 -13
-36 -27 -22 -12 12 -4 33 11 33 5 0 12 -5 16 -11z"/>
<path d="M493 6793 c32 -2 81 -2 110 0 29 2 3 3 -58 3 -60 0 -84 -1 -52 -3z"/>
<path d="M2310 6724 c-18 -21 13 -55 32 -36 9 9 226 12 930 12 l918 0 0 -225
0 -225 90 0 90 0 0 -130 0 -130 -1035 0 -1035 0 0 -45 0 -45 -57 0 c-39 0 -62
5 -75 17 -17 16 -20 16 -35 0 -16 -16 -16 -18 0 -34 13 -13 20 -15 29 -5 7 7
40 12 80 12 l68 0 0 45 0 45 1030 0 1030 0 0 -135 0 -135 135 0 134 0 4 -92 3
-93 2 93 2 92 135 0 135 0 0 130 c0 107 2 128 14 124 8 -3 17 -1 21 5 4 8 114
11 341 11 l334 0 0 -90 0 -90 90 0 90 0 0 -85 0 -85 -90 0 -90 0 0 -630 0
-630 -329 0 c-284 0 -330 2 -341 15 -7 9 -19 14 -27 11 -10 -4 -13 18 -13 114
l0 119 93 4 92 3 -92 2 -93 2 0 135 0 135 -135 0 -134 0 -4 93 -3 92 -2 -92
-2 -93 -135 0 -135 0 0 -135 0 -135 -85 0 -85 0 0 315 0 315 -917 0 c-845 0
-918 1 -935 17 -17 16 -20 16 -35 0 -16 -16 -16 -18 0 -34 13 -13 19 -15 29
-5 9 9 226 12 930 12 l918 0 0 -315 0 -315 90 0 90 0 0 -130 0 -130 -1030 0
-1030 0 0 45 0 45 -62 0 c-44 0 -67 5 -80 17 -17 16 -20 16 -35 0 -16 -16 -16
-18 0 -34 13 -13 19 -14 29 -5 7 7 39 12 75 12 l63 0 0 -45 0 -45 1035 0 1035
0 0 -135 0 -135 135 0 134 0 4 -92 3 -93 2 93 2 92 135 0 135 0 0 130 c0 107
2 128 14 124 8 -3 17 -1 21 5 4 8 116 11 346 11 l339 0 0 630 0 630 85 0 c69
0 85 -3 85 -15 0 -12 17 -15 98 -15 145 0 228 32 253 98 8 21 14 22 99 22 l90
0 0 -220 0 -220 -45 0 -45 0 0 -50 0 -50 90 0 90 0 0 -85 0 -85 -90 0 -90 0 0
-1215 0 -1215 -644 0 c-568 0 -645 2 -656 15 -7 9 -19 14 -27 11 -10 -4 -13
18 -13 114 l0 119 93 4 92 3 -92 2 -93 2 0 135 0 135 -135 0 -134 0 -4 93 -3
92 -2 -92 -2 -93 -135 0 -135 0 0 -135 0 -135 -85 0 -85 0 0 405 0 405 -962 0
c-887 0 -963 1 -980 17 -17 16 -20 16 -35 0 -16 -16 -16 -18 0 -34 13 -13 20
-14 29 -5 9 9 236 12 975 12 l963 0 0 -405 0 -405 90 0 90 0 0 -130 0 -130
-990 0 -990 0 0 -135 0 -135 -57 0 c-39 0 -62 5 -75 17 -17 16 -20 16 -35 0
-16 -16 -16 -18 0 -34 13 -13 19 -15 29 -5 7 7 40 12 80 12 l68 0 0 135 0 135
985 0 985 0 0 -135 0 -135 135 0 134 0 4 -92 3 -93 2 93 2 92 135 0 135 0 0
130 c0 107 2 128 14 124 8 -3 17 -1 21 5 4 8 207 11 661 11 l654 0 0 1215 0
1215 85 0 c69 0 85 -3 85 -15 0 -12 17 -15 98 -15 144 0 228 32 253 97 8 21
16 23 106 26 l98 3 -97 2 c-91 2 -97 3 -103 25 -11 35 -56 76 -94 87 -20 5
-87 10 -148 10 -94 0 -113 -3 -113 -15 0 -12 -16 -15 -85 -15 l-85 0 0 39 0
40 48 3 c43 3 47 5 50 31 4 33 42 40 42 8 0 -11 5 -23 10 -26 6 -4 10 13 10
44 0 28 -4 51 -10 51 -5 0 -10 -9 -10 -20 0 -29 -29 -25 -40 6 -6 14 -10 102
-10 195 l0 169 -94 0 c-89 0 -95 1 -101 23 -11 35 -56 76 -94 87 -20 5 -87 10
-148 10 -94 0 -113 -3 -113 -15 0 -12 -16 -15 -85 -15 l-85 0 0 90 0 90 -334
0 c-289 0 -335 2 -346 15 -7 9 -19 14 -27 11 -10 -4 -13 18 -13 114 l0 119 93
4 92 3 -92 2 -93 2 0 135 0 135 -135 0 -134 0 -4 93 -3 92 -2 -92 -2 -93 -135
0 -135 0 0 -135 0 -135 -85 0 -85 0 0 225 0 225 -919 0 c-804 0 -920 2 -931
15 -16 19 -24 19 -40 -1z m36 -5 c10 -17 -13 -36 -27 -22 -12 12 -4 33 11 33
5 0 12 -5 16 -11z m2564 -599 l0 -400 -265 0 -265 0 0 120 c0 66 4 120 8 120
5 0 17 6 27 14 19 14 19 15 -8 27 l-27 12 0 254 0 253 265 0 265 0 0 -400z
m46 -121 c10 -17 -13 -36 -27 -22 -12 12 -4 33 11 33 5 0 12 -5 16 -11z m-551
-5 c13 -5 14 -8 3 -15 -19 -13 -28 -11 -28 6 0 17 2 18 25 9z m-2239 -85 c10
-17 -13 -36 -27 -22 -12 12 -4 33 11 33 5 0 12 -5 16 -11z m3905 -89 c52 -15
84 -53 84 -101 0 -78 -84 -119 -247 -119 l-88 0 0 115 0 115 108 0 c59 0 123
-5 143 -10z m-3725 -541 c10 -17 -13 -36 -27 -22 -12 12 -4 33 11 33 5 0 12
-5 16 -11z m4355 -89 c52 -15 84 -53 84 -101 0 -78 -84 -119 -247 -119 l-88 0
0 115 0 115 108 0 c59 0 123 -5 143 -10z m-1791 -690 l0 -400 -265 0 -265 0 0
120 c0 66 4 120 8 120 5 0 17 6 27 14 19 14 19 15 -8 27 l-27 12 0 254 0 253
265 0 265 0 0 -400z m-2744 -31 c10 -17 -13 -36 -27 -22 -12 12 -4 33 11 33 5
0 12 -5 16 -11z m2790 -90 c10 -17 -13 -36 -27 -22 -12 12 -4 33 11 33 5 0 12
-5 16 -11z m-551 -5 c13 -5 14 -8 3 -15 -19 -13 -28 -11 -28 6 0 17 2 18 25 9z
m-2149 -715 c10 -17 -13 -36 -27 -22 -12 12 -4 33 11 33 5 0 12 -5 16 -11z
m2654 -959 l0 -400 -265 0 -265 0 0 120 c0 66 4 120 8 120 5 0 17 6 27 14 19
14 19 15 -8 27 l-27 12 0 254 0 253 265 0 265 0 0 -400z m46 -121 c10 -17 -13
-36 -27 -22 -12 12 -4 33 11 33 5 0 12 -5 16 -11z m-551 -5 c13 -5 14 -8 3
-15 -19 -13 -28 -11 -28 6 0 17 2 18 25 9z m-2149 -265 c10 -17 -13 -36 -27
-22 -12 12 -4 33 11 33 5 0 12 -5 16 -11z"/>
<path d="M4570 6444 c0 -9 7 -14 17 -12 25 5 28 28 4 28 -12 0 -21 -6 -21 -16z"/>
<path d="M4620 6430 c0 -23 4 -30 20 -30 11 0 20 4 20 10 0 5 -7 7 -15 4 -8
-4 -15 -2 -15 4 0 5 7 12 15 16 22 8 18 26 -5 26 -16 0 -20 -7 -20 -30z"/>
<path d="M4670 6449 c0 -5 5 -7 11 -3 8 5 10 -1 7 -20 -3 -16 -1 -26 7 -26 8
0 10 10 7 26 -3 19 -1 25 7 20 6 -4 11 -2 11 3 0 6 -11 11 -25 11 -14 0 -25
-5 -25 -11z"/>
<path d="M4578 6403 c7 -3 16 -2 19 1 4 3 -2 6 -13 5 -11 0 -14 -3 -6 -6z"/>
<path d="M4440 6280 c0 -23 4 -30 20 -30 11 0 20 4 20 10 0 5 -7 7 -15 4 -11
-4 -15 0 -15 16 0 16 4 20 16 16 8 -3 12 -2 9 4 -14 22 -35 10 -35 -20z"/>
<path d="M4828 6292 c9 -10 19 -17 21 -16 6 5 -20 34 -30 34 -5 0 -1 -8 9 -18z"/>
<path d="M4801 6280 c-1 -17 17 -40 31 -40 4 0 8 5 8 10 0 6 -6 10 -14 10 -8
0 -17 8 -19 18 -4 13 -5 13 -6 2z"/>
<path d="M4446 6032 c-2 -4 4 -8 14 -8 10 0 16 4 14 8 -3 4 -9 8 -14 8 -5 0
-11 -4 -14 -8z"/>
<path d="M4495 6010 c0 -26 4 -30 25 -29 19 1 20 3 7 6 -14 4 -18 12 -14 29 2
14 -1 24 -7 24 -6 0 -11 -13 -11 -30z"/>
<path d="M4550 6010 c0 -16 5 -30 11 -30 5 0 7 5 4 10 -3 6 -1 10 4 10 6 0 11
-5 11 -12 0 -6 3 -8 7 -4 5 4 0 14 -11 21 -10 8 -15 18 -11 24 3 6 1 11 -4 11
-6 0 -11 -13 -11 -30z"/>
<path d="M4580 6029 c0 -5 5 -7 10 -4 6 3 10 8 10 11 0 2 -4 4 -10 4 -5 0 -10
-5 -10 -11z"/>
<path d="M4828 6022 c9 -10 19 -17 21 -16 6 5 -20 34 -30 34 -5 0 -1 -8 9 -18z"/>
<path d="M4801 6010 c-1 -17 17 -40 31 -40 4 0 8 5 8 10 0 6 -6 10 -14 10 -8
0 -17 8 -19 18 -4 13 -5 13 -6 2z"/>
<path d="M4750 6000 c0 -6 7 -10 15 -10 8 0 15 2 15 4 0 2 -7 6 -15 10 -8 3
-15 1 -15 -4z"/>
<path d="M4440 5989 c0 -5 9 -9 20 -9 11 0 20 2 20 4 0 2 -9 6 -20 9 -11 3
-20 1 -20 -4z"/>
<path d="M4510 5848 c0 -25 3 -29 10 -18 9 13 11 13 21 0 9 -13 10 -12 5 3 -3
10 -6 21 -6 23 0 3 -4 2 -10 -1 -5 -3 -10 -2 -10 4 0 5 6 12 13 14 7 3 5 6 -5
6 -14 1 -18 -7 -18 -31z"/>
<path d="M4566 5865 c4 -8 10 -15 16 -15 5 0 7 4 4 9 -4 5 0 12 6 14 7 3 3 6
-9 6 -16 1 -21 -3 -17 -14z"/>
<path d="M4625 5870 c-3 -6 1 -13 10 -16 9 -4 14 -13 11 -21 -3 -8 -1 -11 4
-8 17 10 11 35 -7 36 -15 0 -15 2 2 9 16 7 17 9 3 9 -9 1 -20 -4 -23 -9z"/>
<path d="M4676 5865 c4 -8 10 -15 16 -15 5 0 7 4 4 9 -4 5 0 12 6 14 7 3 3 6
-9 6 -16 1 -21 -3 -17 -14z"/>
<path d="M4738 5873 c6 -2 18 -2 25 0 6 3 1 5 -13 5 -14 0 -19 -2 -12 -5z"/>
<path d="M4565 5830 c-4 -6 3 -10 14 -10 25 0 27 6 6 13 -8 4 -17 2 -20 -3z"/>
<path d="M4675 5830 c-4 -6 3 -10 14 -10 25 0 27 6 6 13 -8 4 -17 2 -20 -3z"/>
<path d="M4740 5830 c0 -5 5 -10 11 -10 5 0 7 5 4 10 -3 6 -8 10 -11 10 -2 0
-4 -4 -4 -10z"/>
<path d="M4570 4824 c0 -9 7 -14 17 -12 25 5 28 28 4 28 -12 0 -21 -6 -21 -16z"/>
<path d="M4620 4810 c0 -23 4 -30 20 -30 11 0 20 4 20 10 0 5 -7 7 -15 4 -8
-4 -15 -2 -15 4 0 5 7 12 15 16 22 8 18 26 -5 26 -16 0 -20 -7 -20 -30z"/>
<path d="M4670 4829 c0 -5 5 -7 11 -3 8 5 10 -1 7 -20 -3 -16 -1 -26 7 -26 8
0 10 10 7 26 -3 19 -1 25 7 20 6 -4 11 -2 11 3 0 6 -11 11 -25 11 -14 0 -25
-5 -25 -11z"/>
<path d="M4578 4783 c7 -3 16 -2 19 1 4 3 -2 6 -13 5 -11 0 -14 -3 -6 -6z"/>
<path d="M4440 4660 c0 -23 4 -30 20 -30 11 0 20 4 20 10 0 5 -7 7 -15 4 -11
-4 -15 0 -15 16 0 16 4 20 16 16 8 -3 12 -2 9 4 -14 22 -35 10 -35 -20z"/>
<path d="M4828 4672 c9 -10 19 -17 21 -16 6 5 -20 34 -30 34 -5 0 -1 -8 9 -18z"/>
<path d="M4801 4660 c-1 -17 17 -40 31 -40 4 0 8 5 8 10 0 6 -6 10 -14 10 -8
0 -17 8 -19 18 -4 13 -5 13 -6 2z"/>
<path d="M4446 4412 c-2 -4 4 -8 14 -8 10 0 16 4 14 8 -3 4 -9 8 -14 8 -5 0
-11 -4 -14 -8z"/>
<path d="M4495 4390 c0 -26 4 -30 25 -29 19 1 20 3 7 6 -14 4 -18 12 -14 29 2
14 -1 24 -7 24 -6 0 -11 -13 -11 -30z"/>
<path d="M4550 4390 c0 -16 5 -30 11 -30 5 0 7 5 4 10 -3 6 -1 10 4 10 6 0 11
-5 11 -12 0 -6 3 -8 7 -4 5 4 0 14 -11 21 -10 8 -15 18 -11 24 3 6 1 11 -4 11
-6 0 -11 -13 -11 -30z"/>
<path d="M4580 4409 c0 -5 5 -7 10 -4 6 3 10 8 10 11 0 2 -4 4 -10 4 -5 0 -10
-5 -10 -11z"/>
<path d="M4828 4402 c9 -10 19 -17 21 -16 6 5 -20 34 -30 34 -5 0 -1 -8 9 -18z"/>
<path d="M4801 4390 c-1 -17 17 -40 31 -40 4 0 8 5 8 10 0 6 -6 10 -14 10 -8
0 -17 8 -19 18 -4 13 -5 13 -6 2z"/>
<path d="M4750 4380 c0 -6 7 -10 15 -10 8 0 15 2 15 4 0 2 -7 6 -15 10 -8 3
-15 1 -15 -4z"/>
<path d="M4440 4369 c0 -5 9 -9 20 -9 11 0 20 2 20 4 0 2 -9 6 -20 9 -11 3
-20 1 -20 -4z"/>
<path d="M4510 4228 c0 -25 3 -29 10 -18 9 13 11 13 21 0 9 -13 10 -12 5 3 -3
10 -6 21 -6 23 0 3 -4 2 -10 -1 -5 -3 -10 -2 -10 4 0 5 6 12 13 14 7 3 5 6 -5
6 -14 1 -18 -7 -18 -31z"/>
<path d="M4566 4245 c4 -8 10 -15 16 -15 5 0 7 4 4 9 -4 5 0 12 6 14 7 3 3 6
-9 6 -16 1 -21 -3 -17 -14z"/>
<path d="M4625 4250 c-3 -6 1 -13 10 -16 9 -4 14 -13 11 -21 -3 -8 -1 -11 4
-8 17 10 11 35 -7 36 -15 0 -15 2 2 9 16 7 17 9 3 9 -9 1 -20 -4 -23 -9z"/>
<path d="M4676 4245 c4 -8 10 -15 16 -15 5 0 7 4 4 9 -4 5 0 12 6 14 7 3 3 6
-9 6 -16 1 -21 -3 -17 -14z"/>
<path d="M4738 4253 c6 -2 18 -2 25 0 6 3 1 5 -13 5 -14 0 -19 -2 -12 -5z"/>
<path d="M4565 4210 c-4 -6 3 -10 14 -10 25 0 27 6 6 13 -8 4 -17 2 -20 -3z"/>
<path d="M4675 4210 c-4 -6 3 -10 14 -10 25 0 27 6 6 13 -8 4 -17 2 -20 -3z"/>
<path d="M4740 4210 c0 -5 5 -10 11 -10 5 0 7 5 4 10 -3 6 -8 10 -11 10 -2 0
-4 -4 -4 -10z"/>
<path d="M4570 3024 c0 -9 7 -14 17 -12 25 5 28 28 4 28 -12 0 -21 -6 -21 -16z"/>
<path d="M4620 3010 c0 -23 4 -30 20 -30 11 0 20 4 20 10 0 5 -7 7 -15 4 -8
-4 -15 -2 -15 4 0 5 7 12 15 16 22 8 18 26 -5 26 -16 0 -20 -7 -20 -30z"/>
<path d="M4670 3029 c0 -5 5 -7 11 -3 8 5 10 -1 7 -20 -3 -16 -1 -26 7 -26 8
0 10 10 7 26 -3 19 -1 25 7 20 6 -4 11 -2 11 3 0 6 -11 11 -25 11 -14 0 -25
-5 -25 -11z"/>
<path d="M4578 2983 c7 -3 16 -2 19 1 4 3 -2 6 -13 5 -11 0 -14 -3 -6 -6z"/>
<path d="M4440 2860 c0 -23 4 -30 20 -30 11 0 20 4 20 10 0 5 -7 7 -15 4 -11
-4 -15 0 -15 16 0 16 4 20 16 16 8 -3 12 -2 9 4 -14 22 -35 10 -35 -20z"/>
<path d="M4828 2872 c9 -10 19 -17 21 -16 6 5 -20 34 -30 34 -5 0 -1 -8 9 -18z"/>
<path d="M4801 2860 c-1 -17 17 -40 31 -40 4 0 8 5 8 10 0 6 -6 10 -14 10 -8
0 -17 8 -19 18 -4 13 -5 13 -6 2z"/>
<path d="M4446 2612 c-2 -4 4 -8 14 -8 10 0 16 4 14 8 -3 4 -9 8 -14 8 -5 0
-11 -4 -14 -8z"/>
<path d="M4495 2590 c0 -26 4 -30 25 -29 19 1 20 3 7 6 -14 4 -18 12 -14 29 2
14 -1 24 -7 24 -6 0 -11 -13 -11 -30z"/>
<path d="M4550 2590 c0 -16 5 -30 11 -30 5 0 7 5 4 10 -3 6 -1 10 4 10 6 0 11
-5 11 -12 0 -6 3 -8 7 -4 5 4 0 14 -11 21 -10 8 -15 18 -11 24 3 6 1 11 -4 11
-6 0 -11 -13 -11 -30z"/>
<path d="M4580 2609 c0 -5 5 -7 10 -4 6 3 10 8 10 11 0 2 -4 4 -10 4 -5 0 -10
-5 -10 -11z"/>
<path d="M4828 2602 c9 -10 19 -17 21 -16 6 5 -20 34 -30 34 -5 0 -1 -8 9 -18z"/>
<path d="M4801 2590 c-1 -17 17 -40 31 -40 4 0 8 5 8 10 0 6 -6 10 -14 10 -8
0 -17 8 -19 18 -4 13 -5 13 -6 2z"/>
<path d="M4750 2580 c0 -6 7 -10 15 -10 8 0 15 2 15 4 0 2 -7 6 -15 10 -8 3
-15 1 -15 -4z"/>
<path d="M4440 2569 c0 -5 9 -9 20 -9 11 0 20 2 20 4 0 2 -9 6 -20 9 -11 3
-20 1 -20 -4z"/>
<path d="M4510 2428 c0 -25 3 -29 10 -18 9 13 11 13 21 0 9 -13 10 -12 5 3 -3
10 -6 21 -6 23 0 3 -4 2 -10 -1 -5 -3 -10 -2 -10 4 0 5 6 12 13 14 7 3 5 6 -5
6 -14 1 -18 -7 -18 -31z"/>
<path d="M4566 2445 c4 -8 10 -15 16 -15 5 0 7 4 4 9 -4 5 0 12 6 14 7 3 3 6
-9 6 -16 1 -21 -3 -17 -14z"/>
<path d="M4625 2450 c-3 -6 1 -13 10 -16 9 -4 14 -13 11 -21 -3 -8 -1 -11 4
-8 17 10 11 35 -7 36 -15 0 -15 2 2 9 16 7 17 9 3 9 -9 1 -20 -4 -23 -9z"/>
<path d="M4676 2445 c4 -8 10 -15 16 -15 5 0 7 4 4 9 -4 5 0 12 6 14 7 3 3 6
-9 6 -16 1 -21 -3 -17 -14z"/>
<path d="M4738 2453 c6 -2 18 -2 25 0 6 3 1 5 -13 5 -14 0 -19 -2 -12 -5z"/>
<path d="M4565 2410 c-4 -6 3 -10 14 -10 25 0 27 6 6 13 -8 4 -17 2 -20 -3z"/>
<path d="M4675 2410 c-4 -6 3 -10 14 -10 25 0 27 6 6 13 -8 4 -17 2 -20 -3z"/>
<path d="M4740 2410 c0 -5 5 -10 11 -10 5 0 7 5 4 10 -3 6 -8 10 -11 10 -2 0
-4 -4 -4 -10z"/>
<path d="M4940 6651 c0 -44 19 -66 50 -56 17 5 20 14 18 53 l-1 47 -6 -45 c-8
-61 -35 -63 -39 -2 -4 53 -22 56 -22 3z"/>
<path d="M5050 6675 c-9 -10 -9 -15 -1 -15 6 0 11 -16 11 -35 0 -19 5 -35 10
-35 6 0 10 23 10 50 0 51 -8 61 -30 35z"/>
<path d="M580 6659 c-11 -8 -12 -12 -2 -16 6 -2 12 -20 12 -39 0 -21 4 -33 10
-29 12 7 14 95 3 95 -5 0 -15 -5 -23 -11z"/>
<path d="M1912 6590 c-1 -41 2 -49 8 -34 13 33 26 36 38 9 7 -14 16 -25 22
-25 6 0 4 14 -6 32 -13 25 -14 36 -5 50 15 25 -2 23 -25 -3 l-19 -21 -6 24
c-5 15 -7 3 -7 -32z"/>
<path d="M2308 6590 c-9 -27 -12 -50 -7 -50 5 0 9 5 9 10 0 6 11 10 25 10 14
0 25 -4 25 -10 0 -5 4 -10 9 -10 5 0 2 23 -7 50 -9 28 -21 50 -27 50 -6 0 -18
-22 -27 -50z m41 -12 c1 -5 -6 -8 -15 -8 -11 0 -14 5 -10 16 3 9 6 21 7 27 0
12 17 -20 18 -35z"/>
<path d="M2112 6593 c-10 -27 -11 -27 -17 -5 -4 12 -11 22 -16 22 -4 0 -3 -14
3 -30 5 -17 8 -39 5 -50 -3 -12 0 -17 8 -14 7 3 18 25 25 50 14 50 8 71 -8 27z"/>
<path d="M2007 6604 c-4 -4 -7 -17 -7 -30 0 -25 28 -40 44 -24 8 8 6 9 -5 5
-10 -4 -20 -2 -24 4 -4 7 4 11 20 11 20 0 26 4 23 18 -3 17 -38 29 -51 16z
m33 -14 c0 -5 -4 -10 -10 -10 -5 0 -10 5 -10 10 0 6 5 10 10 10 6 0 10 -4 10
-10z"/>
<path d="M2203 6593 c9 -2 25 -2 35 0 9 3 1 5 -18 5 -19 0 -27 -2 -17 -5z"/>
<path d="M2203 6573 c9 -2 25 -2 35 0 9 3 1 5 -18 5 -19 0 -27 -2 -17 -5z"/>
<path d="M1070 6229 c0 -31 4 -48 10 -44 6 3 10 26 10 51 0 24 -4 44 -10 44
-5 0 -10 -23 -10 -51z"/>
<path d="M1120 6265 c-9 -10 -9 -15 -1 -15 6 0 11 -16 11 -35 0 -19 5 -35 10
-35 6 0 10 23 10 50 0 51 -8 61 -30 35z"/>
<path d="M862 6218 c-2 -43 -5 -48 -29 -54 -92 -19 -146 -84 -146 -174 0 -90
54 -155 146 -174 25 -6 27 -10 27 -56 l0 -50 410 0 410 0 0 90 0 90 58 0 c32
0 63 -5 69 -11 9 -9 51 14 165 89 84 56 150 102 145 102 -4 0 -64 -38 -134
-85 -119 -79 -128 -83 -145 -68 -17 15 -19 15 -36 0 -13 -12 -37 -17 -75 -17
l-57 0 0 -90 0 -90 -401 0 -400 0 3 47 c3 42 6 49 28 53 41 8 84 39 109 78 63
96 4 239 -109 262 -22 4 -26 12 -31 55 l-6 50 -1 -47z m90 -90 c58 -40 83
-102 71 -174 -8 -51 -75 -119 -126 -127 -65 -10 -107 3 -152 48 -45 45 -58 87
-48 152 8 45 78 119 119 126 46 7 107 -4 136 -25z m884 -219 c10 -17 -13 -36
-27 -22 -12 12 -4 33 11 33 5 0 12 -5 16 -11z"/>
<path d="M846 6112 c-20 -38 -20 -42 -1 -42 8 0 15 -6 15 -12 0 -9 3 -10 8 -2
4 6 12 13 19 15 8 3 6 14 -7 38 l-17 35 -17 -32z"/>
<path d="M802 5983 c1 -37 1 -37 5 -5 4 26 9 32 29 32 20 0 24 -5 24 -30 0
-28 3 -30 35 -30 33 0 35 2 34 33 -2 30 -2 30 -6 5 -3 -22 -10 -28 -29 -28
-20 0 -24 5 -24 30 0 28 -3 30 -35 30 -34 0 -35 -1 -33 -37z"/>
<path d="M862 5900 c0 -19 2 -27 5 -17 2 9 2 25 0 35 -3 9 -5 1 -5 -18z"/>
<path d="M1916 6225 c-3 -9 4 -24 19 -37 28 -24 24 -42 -8 -33 -20 5 -20 5 -4
-5 10 -7 25 -9 33 -6 21 8 17 44 -6 56 -11 6 -20 16 -20 22 0 5 9 8 20 5 11
-3 20 -1 20 4 0 15 -48 10 -54 -6z"/>
<path d="M1995 6230 c-5 -9 -1 -10 14 -5 27 8 27 -9 1 -42 -28 -35 -25 -43 13
-42 17 1 24 3 15 6 -22 6 -23 17 -3 33 22 18 15 54 -12 58 -11 2 -24 -2 -28
-8z"/>
<path d="M1070 6105 c-10 -12 -10 -15 3 -15 11 0 17 -12 20 -37 3 -31 4 -29 5
15 2 53 -6 64 -28 37z"/>
<path d="M1139 6100 c-3 -14 -2 -38 2 -55 4 -16 7 -22 8 -12 1 22 17 22 25 1
4 -9 9 -14 12 -11 3 3 1 14 -5 25 -7 13 -7 22 1 30 9 9 9 12 1 12 -7 0 -15 -6
-20 -12 -5 -9 -10 -3 -13 17 -6 29 -6 29 -11 5z"/>
<path d="M1210 6069 c0 -31 4 -48 10 -44 6 3 10 15 10 26 0 32 38 24 43 -8 2
-16 4 -3 5 27 1 42 -1 50 -8 33 -12 -28 -40 -30 -40 -3 0 11 -4 20 -10 20 -5
0 -10 -23 -10 -51z"/>
<path d="M1317 6082 c8 -5 9 -13 3 -22 -17 -27 -11 -40 18 -39 16 1 20 3 10 6
-22 6 -22 8 -2 38 16 25 16 25 -12 25 -17 0 -24 -3 -17 -8z"/>
<path d="M5924 5961 c2 -79 60 -81 68 -2 2 21 -2 36 -9 38 -9 3 -13 -9 -13
-41 0 -34 -4 -46 -15 -46 -14 0 -19 12 -29 70 -2 14 -3 5 -2 -19z"/>
<path d="M6027 5965 c-21 -45 -21 -45 3 -45 11 0 20 -6 20 -12 0 -10 2 -10 8
-1 9 14 3 93 -7 93 -4 0 -15 -16 -24 -35z m15 -27 c-7 -7 -12 -8 -12 -2 0 14
12 26 19 19 2 -3 -1 -11 -7 -17z"/>
<path d="M1070 5955 c-10 -12 -10 -15 3 -15 11 0 17 -12 20 -37 3 -31 4 -29 5
15 2 53 -6 64 -28 37z"/>
<path d="M1150 5945 c-5 -14 -13 -37 -16 -51 -6 -24 -5 -25 15 -12 17 11 25
11 42 0 20 -13 21 -12 15 12 -12 47 -25 76 -36 76 -6 0 -15 -11 -20 -25z m30
-25 c0 -11 -4 -20 -10 -20 -5 0 -10 9 -10 20 0 11 5 20 10 20 6 0 10 -9 10
-20z"/>
<path d="M1732 5780 c-1 -41 2 -49 8 -34 13 33 26 36 38 9 7 -14 16 -25 22
-25 6 0 4 14 -6 32 -13 25 -14 36 -5 50 15 25 -2 23 -25 -3 l-19 -21 -6 24
c-5 15 -7 3 -7 -32z"/>
<path d="M2128 5780 c-9 -27 -12 -50 -7 -50 5 0 9 5 9 10 0 6 11 10 25 10 14
0 25 -4 25 -10 0 -5 4 -10 9 -10 5 0 2 23 -7 50 -9 28 -21 50 -27 50 -6 0 -18
-22 -27 -50z m41 -12 c1 -5 -6 -8 -15 -8 -11 0 -14 5 -10 16 3 9 6 21 7 27 0
12 17 -20 18 -35z"/>
<path d="M1932 5783 c-10 -27 -11 -27 -17 -5 -4 12 -11 22 -16 22 -4 0 -3 -14
3 -30 5 -17 8 -39 5 -50 -3 -12 0 -17 8 -14 7 3 18 25 25 50 14 50 8 71 -8 27z"/>
<path d="M1827 5794 c-4 -4 -7 -17 -7 -30 0 -25 28 -40 44 -24 8 8 6 9 -5 5
-10 -4 -20 -2 -24 4 -4 7 4 11 20 11 20 0 26 4 23 18 -3 17 -38 29 -51 16z
m33 -14 c0 -5 -4 -10 -10 -10 -5 0 -10 5 -10 10 0 6 5 10 10 10 6 0 10 -4 10
-10z"/>
<path d="M2023 5783 c9 -2 25 -2 35 0 9 3 1 5 -18 5 -19 0 -27 -2 -17 -5z"/>
<path d="M2023 5763 c9 -2 25 -2 35 0 9 3 1 5 -18 5 -19 0 -27 -2 -17 -5z"/>
<path d="M4940 5630 c0 -46 2 -50 24 -50 28 0 56 24 56 46 0 32 -21 54 -50 54
-29 0 -30 -1 -30 -50z m55 0 c0 -25 -5 -36 -17 -38 -15 -3 -18 4 -18 38 0 34
3 41 18 38 12 -2 17 -13 17 -38z"/>
<path d="M5110 5629 c0 -31 4 -48 10 -44 6 3 10 12 10 20 0 7 8 16 18 18 16 4
16 5 0 6 -27 2 -23 39 5 44 16 3 13 5 -10 6 l-33 1 0 -51z"/>
<path d="M5190 5636 c0 -25 5 -48 10 -51 6 -3 10 3 10 14 0 12 8 21 23 24 l22
4 -22 2 c-16 1 -23 7 -23 20 0 12 8 21 23 24 16 3 13 5 -10 6 -32 1 -33 0 -33
-43z"/>
<path d="M520 5586 c0 -16 7 -27 21 -31 23 -8 20 -31 -4 -29 -9 1 -14 -2 -11
-7 8 -14 30 -11 45 7 11 14 10 20 -14 40 -32 27 -35 38 -7 31 11 -3 20 -1 20
4 0 5 -11 9 -25 9 -20 0 -25 -5 -25 -24z"/>
<path d="M598 5571 c-5 -55 -1 -61 35 -60 30 1 30 1 7 8 -37 10 -39 41 -3 42
27 1 27 1 4 8 -35 9 -37 29 -4 34 28 4 28 4 -3 6 -30 1 -32 -1 -36 -38z"/>
<path d="M2096 5595 c-3 -9 4 -24 19 -37 28 -24 24 -42 -8 -33 -20 5 -20 5 -4
-5 10 -7 25 -9 33 -6 21 8 17 44 -6 56 -11 6 -20 16 -20 22 0 5 9 8 20 5 11
-3 20 -1 20 4 0 15 -48 10 -54 -6z"/>
<path d="M2187 5575 c-21 -45 -21 -45 3 -45 11 0 20 -6 20 -12 0 -10 2 -10 8
-1 9 14 3 93 -7 93 -4 0 -15 -16 -24 -35z m15 -27 c-7 -7 -12 -8 -12 -2 0 14
12 26 19 19 2 -3 -1 -11 -7 -17z"/>
<path d="M5048 5553 c12 -2 30 -2 40 0 9 3 -1 5 -23 4 -22 0 -30 -2 -17 -4z"/>
<path d="M5830 5535 c-5 -14 -13 -37 -16 -51 -6 -24 -5 -25 15 -12 17 11 25
11 42 0 20 -13 21 -12 15 12 -12 47 -25 76 -36 76 -6 0 -15 -11 -20 -25z m30
-25 c0 -11 -4 -20 -10 -20 -5 0 -10 9 -10 20 0 11 5 20 10 20 6 0 10 -9 10
-20z"/>
<path d="M5910 5516 c0 -25 5 -48 10 -51 6 -4 10 7 10 27 l0 33 21 -32 c12
-18 25 -30 30 -27 12 7 11 94 -1 94 -5 0 -10 -15 -10 -32 l0 -33 -20 33 c-27
44 -40 40 -40 -12z"/>
<path d="M6010 5510 c0 -46 2 -50 24 -50 31 0 56 24 56 54 0 30 -18 46 -52 46
-27 0 -28 -2 -28 -50z m55 0 c0 -25 -5 -36 -17 -38 -15 -3 -18 4 -18 38 0 34
3 41 18 38 12 -2 17 -13 17 -38z"/>
<path d="M6105 5550 c-5 -9 -1 -10 14 -5 27 8 27 -9 1 -42 -28 -35 -25 -43 13
-42 17 1 24 3 15 6 -22 6 -23 17 -3 33 22 18 15 54 -12 58 -11 2 -24 -2 -28
-8z"/>
<path d="M410 5360 l0 -90 135 0 135 0 0 40 0 40 540 0 540 0 0 -45 0 -45 108
0 c67 0 112 -4 119 -11 9 -9 51 14 165 89 84 56 150 102 145 102 -4 0 -64 -38
-134 -85 -119 -79 -128 -83 -145 -68 -17 15 -19 15 -36 0 -15 -13 -39 -17
-115 -17 l-97 0 0 45 0 45 -545 0 -545 0 0 45 0 45 -135 0 -135 0 0 -90z m260
0 l0 -80 -125 0 -125 0 0 80 0 80 125 0 125 0 0 -80z m1346 -81 c10 -17 -13
-36 -27 -22 -12 12 -4 33 11 33 5 0 12 -5 16 -11z"/>
<path d="M493 5353 c32 -2 81 -2 110 0 29 2 3 3 -58 3 -60 0 -84 -1 -52 -3z"/>
<path d="M6570 5326 c0 -25 5 -48 10 -51 6 -4 10 7 10 24 0 17 5 31 10 31 6 0
10 -11 10 -24 0 -14 5 -28 10 -31 6 -4 10 8 10 29 0 29 -4 36 -20 36 -11 0
-20 7 -20 15 0 8 -4 15 -10 15 -5 0 -10 -20 -10 -44z"/>
<path d="M6463 5305 c0 -22 2 -30 4 -17 2 12 2 30 0 40 -3 9 -5 -1 -4 -23z"/>
<path d="M6497 5333 c-12 -11 -7 -51 6 -56 10 -4 12 3 9 25 -4 23 -1 29 9 26
12 -4 15 -28 10 -71 -1 -5 -11 -6 -23 -2 -19 5 -20 4 -6 -5 30 -19 48 -2 48
46 0 39 -2 44 -23 44 -13 0 -27 -3 -30 -7z"/>
<path d="M6654 5314 c11 -42 24 -51 34 -23 l9 24 7 -23 c10 -31 21 -27 33 13
12 38 7 45 -13 18 -13 -17 -13 -17 -14 0 0 24 -19 21 -30 -5 -6 -17 -9 -18 -9
-6 -1 9 -6 20 -12 24 -9 5 -10 -1 -5 -22z"/>
<path d="M6763 5308 c2 -27 6 -33 25 -34 19 -1 22 4 22 32 0 29 -3 34 -24 34
-21 0 -24 -4 -23 -32z m34 16 c-3 -3 -12 -4 -19 -1 -8 3 -5 6 6 6 11 1 17 -2
13 -5z m3 -22 c0 -13 -12 -22 -22 -16 -10 6 -1 24 13 24 5 0 9 -4 9 -8z"/>
<path d="M6830 5331 c0 -5 5 -22 10 -37 8 -19 7 -31 -2 -42 -11 -13 -10 -14 2
-10 16 5 55 98 41 98 -4 0 -13 -10 -19 -22 -8 -18 -11 -19 -11 -6 -1 18 -21
36 -21 19z"/>
<path d="M580 5219 c-11 -8 -12 -12 -2 -16 6 -2 12 -20 12 -39 0 -21 4 -33 10
-29 12 7 14 95 3 95 -5 0 -15 -5 -23 -11z"/>
<path d="M1912 5150 c-1 -41 2 -49 8 -34 13 33 26 36 38 9 7 -14 16 -25 22
-25 6 0 4 14 -6 32 -13 25 -14 36 -5 50 15 25 -2 23 -25 -3 l-19 -21 -6 24
c-5 15 -7 3 -7 -32z"/>
<path d="M2308 5150 c-9 -27 -12 -50 -7 -50 5 0 9 5 9 10 0 6 11 10 25 10 14
0 25 -4 25 -10 0 -5 4 -10 9 -10 5 0 2 23 -7 50 -9 28 -21 50 -27 50 -6 0 -18
-22 -27 -50z m41 -12 c1 -5 -6 -8 -15 -8 -11 0 -14 5 -10 16 3 9 6 21 7 27 0
12 17 -20 18 -35z"/>
<path d="M2112 5153 c-10 -27 -11 -27 -17 -5 -4 12 -11 22 -16 22 -4 0 -3 -14
3 -30 5 -17 8 -39 5 -50 -3 -12 0 -17 8 -14 7 3 18 25 25 50 14 50 8 71 -8 27z"/>
<path d="M2007 5164 c-4 -4 -7 -17 -7 -30 0 -25 28 -40 44 -24 8 8 6 9 -5 5
-10 -4 -20 -2 -24 4 -4 7 4 11 20 11 20 0 26 4 23 18 -3 17 -38 29 -51 16z
m33 -14 c0 -5 -4 -10 -10 -10 -5 0 -10 5 -10 10 0 6 5 10 10 10 6 0 10 -4 10
-10z"/>
<path d="M2203 5153 c9 -2 25 -2 35 0 9 3 1 5 -18 5 -19 0 -27 -2 -17 -5z"/>
<path d="M2203 5133 c9 -2 25 -2 35 0 9 3 1 5 -18 5 -19 0 -27 -2 -17 -5z"/>
<path d="M4940 5031 c0 -44 19 -66 50 -56 17 5 20 14 18 53 l-1 47 -6 -45 c-8
-61 -35 -63 -39 -2 -4 53 -22 56 -22 3z"/>
<path d="M5040 5061 c0 -5 9 -7 20 -4 26 7 25 -1 -5 -41 -32 -42 -32 -46 8
-45 17 1 24 3 15 6 -15 4 -15 6 0 32 8 15 13 35 9 44 -7 18 -47 24 -47 8z"/>
<path d="M1070 4879 c0 -31 4 -48 10 -44 6 3 10 26 10 51 0 24 -4 44 -10 44
-5 0 -10 -23 -10 -51z"/>
<path d="M1110 4921 c0 -5 9 -7 20 -4 26 7 25 -1 -5 -41 -32 -42 -32 -46 8
-45 17 1 24 3 15 6 -15 4 -15 6 0 32 8 15 13 35 9 44 -7 18 -47 24 -47 8z"/>
<path d="M6460 4905 c-5 -14 -13 -37 -16 -51 -6 -24 -5 -25 15 -12 17 11 25
11 42 0 20 -13 21 -12 15 12 -12 47 -25 76 -36 76 -6 0 -15 -11 -20 -25z m30
-25 c0 -11 -4 -20 -10 -20 -5 0 -10 9 -10 20 0 11 5 20 10 20 6 0 10 -9 10
-20z"/>
<path d="M6540 4886 c0 -25 5 -48 10 -51 6 -4 10 7 10 27 l0 33 21 -32 c12
-18 25 -30 30 -27 12 7 11 94 -1 94 -5 0 -10 -15 -10 -32 l0 -33 -20 33 c-27
44 -40 40 -40 -12z"/>
<path d="M6640 4880 c0 -46 2 -50 24 -50 31 0 56 24 56 54 0 30 -18 46 -52 46
-27 0 -28 -2 -28 -50z m55 0 c0 -25 -5 -36 -17 -38 -15 -3 -18 4 -18 38 0 34
3 41 18 38 12 -2 17 -13 17 -38z"/>
<path d="M6735 4920 c-5 -9 -1 -10 14 -5 27 8 27 -9 1 -42 -28 -35 -25 -43 13
-42 17 1 24 3 15 6 -22 6 -23 17 -3 33 22 18 15 54 -12 58 -11 2 -24 -2 -28
-8z"/>
<path d="M862 4868 c-2 -43 -5 -48 -29 -54 -92 -19 -146 -84 -146 -174 0 -90
54 -155 146 -174 25 -6 27 -10 27 -56 l0 -50 410 0 410 0 0 45 0 45 58 0 c32
0 63 -5 69 -11 9 -9 51 14 165 89 84 56 150 102 145 102 -4 0 -64 -38 -134
-85 -119 -79 -128 -83 -145 -68 -17 15 -19 15 -36 0 -13 -12 -37 -17 -75 -17
l-57 0 0 -45 0 -45 -401 0 -400 0 3 47 c3 42 6 49 28 53 41 8 84 39 109 78 63
96 4 239 -109 262 -22 4 -26 12 -31 55 l-6 50 -1 -47z m90 -90 c90 -63 100
-176 23 -253 -70 -70 -160 -70 -230 0 -45 45 -58 87 -48 152 8 45 78 119 119
126 46 7 107 -4 136 -25z m884 -309 c10 -17 -13 -36 -27 -22 -12 12 -4 33 11
33 5 0 12 -5 16 -11z"/>
<path d="M846 4762 c-20 -38 -20 -42 -1 -42 8 0 15 -6 15 -12 0 -9 3 -10 8 -2
4 6 12 13 19 15 8 3 6 14 -7 38 l-17 35 -17 -32z"/>
<path d="M802 4633 c1 -37 1 -37 5 -5 4 26 9 32 29 32 20 0 24 -5 24 -30 0
-28 3 -30 35 -30 33 0 35 2 34 33 -2 30 -2 30 -6 5 -3 -22 -10 -28 -29 -28
-20 0 -24 5 -24 30 0 28 -3 30 -35 30 -34 0 -35 -1 -33 -37z"/>
<path d="M862 4550 c0 -19 2 -27 5 -17 2 9 2 25 0 35 -3 9 -5 1 -5 -18z"/>
<path d="M1916 4785 c-3 -9 4 -24 19 -37 28 -24 24 -42 -8 -33 -20 5 -20 5 -4
-5 10 -7 25 -9 33 -6 21 8 17 44 -6 56 -11 6 -20 16 -20 22 0 5 9 8 20 5 11
-3 20 -1 20 4 0 15 -48 10 -54 -6z"/>
<path d="M2000 4790 c0 -5 6 -7 13 -4 9 3 13 -8 14 -36 2 -38 0 -41 -20 -35
-20 5 -20 5 -4 -5 27 -17 48 4 42 44 -2 17 -4 34 -4 39 -1 11 -41 9 -41 -3z"/>
<path d="M1070 4755 c-10 -12 -10 -15 3 -15 11 0 17 -12 20 -37 3 -31 4 -29 5
15 2 53 -6 64 -28 37z"/>
<path d="M1139 4750 c-3 -14 -2 -38 2 -55 4 -16 7 -22 8 -12 1 22 17 22 25 1
4 -9 9 -14 12 -11 3 3 1 14 -5 25 -7 13 -7 22 1 30 9 9 9 12 1 12 -7 0 -15 -6
-20 -12 -5 -9 -10 -3 -13 17 -6 29 -6 29 -11 5z"/>
<path d="M1210 4719 c0 -31 4 -48 10 -44 6 3 10 15 10 26 0 32 38 24 43 -8 2
-16 4 -3 5 27 1 42 -1 50 -8 33 -12 -28 -40 -30 -40 -3 0 11 -4 20 -10 20 -5
0 -10 -23 -10 -51z"/>
<path d="M1317 4732 c8 -5 9 -13 3 -22 -17 -27 -11 -40 18 -39 16 1 20 3 10 6
-22 6 -22 8 -2 38 16 25 16 25 -12 25 -17 0 -24 -3 -17 -8z"/>
<path d="M1070 4605 c-10 -12 -10 -15 3 -15 11 0 17 -12 20 -37 3 -31 4 -29 5
15 2 53 -6 64 -28 37z"/>
<path d="M1150 4595 c-5 -14 -13 -37 -16 -51 -6 -24 -5 -25 15 -12 17 11 25
11 42 0 20 -13 21 -12 15 12 -12 47 -25 76 -36 76 -6 0 -15 -11 -20 -25z m30
-25 c0 -11 -4 -20 -10 -20 -5 0 -10 9 -10 20 0 11 5 20 10 20 6 0 10 -9 10
-20z"/>
<path d="M1732 4340 c-1 -41 2 -49 8 -34 13 33 26 36 38 9 7 -14 16 -25 22
-25 6 0 4 14 -6 32 -13 25 -14 36 -5 50 15 25 -2 23 -25 -3 l-19 -21 -6 24
c-5 15 -7 3 -7 -32z"/>
<path d="M2128 4340 c-9 -27 -12 -50 -7 -50 5 0 9 5 9 10 0 6 11 10 25 10 14
0 25 -4 25 -10 0 -5 4 -10 9 -10 5 0 2 23 -7 50 -9 28 -21 50 -27 50 -6 0 -18
-22 -27 -50z m41 -12 c1 -5 -6 -8 -15 -8 -11 0 -14 5 -10 16 3 9 6 21 7 27 0
12 17 -20 18 -35z"/>
<path d="M1932 4343 c-10 -27 -11 -27 -17 -5 -4 12 -11 22 -16 22 -4 0 -3 -14
3 -30 5 -17 8 -39 5 -50 -3 -12 0 -17 8 -14 7 3 18 25 25 50 14 50 8 71 -8 27z"/>
<path d="M1827 4354 c-4 -4 -7 -17 -7 -30 0 -25 28 -40 44 -24 8 8 6 9 -5 5
-10 -4 -20 -2 -24 4 -4 7 4 11 20 11 20 0 26 4 23 18 -3 17 -38 29 -51 16z
m33 -14 c0 -5 -4 -10 -10 -10 -5 0 -10 5 -10 10 0 6 5 10 10 10 6 0 10 -4 10
-10z"/>
<path d="M2023 4343 c9 -2 25 -2 35 0 9 3 1 5 -18 5 -19 0 -27 -2 -17 -5z"/>
<path d="M2023 4323 c9 -2 25 -2 35 0 9 3 1 5 -18 5 -19 0 -27 -2 -17 -5z"/>
<path d="M4940 4010 c0 -46 2 -50 24 -50 28 0 56 24 56 46 0 32 -21 54 -50 54
-29 0 -30 -1 -30 -50z m55 0 c0 -25 -5 -36 -17 -38 -15 -3 -18 4 -18 38 0 34
3 41 18 38 12 -2 17 -13 17 -38z"/>
<path d="M5110 4009 c0 -31 4 -48 10 -44 6 3 10 12 10 20 0 7 8 16 18 18 16 4
16 5 0 6 -27 2 -23 39 5 44 16 3 13 5 -10 6 l-33 1 0 -51z"/>
<path d="M5190 4016 c0 -25 5 -48 10 -51 6 -3 10 3 10 14 0 12 8 21 23 24 l22
4 -22 2 c-16 1 -23 7 -23 20 0 12 8 21 23 24 16 3 13 5 -10 6 -32 1 -33 0 -33
-43z"/>
<path d="M420 3971 c-17 -33 -12 -61 14 -72 17 -8 29 -8 42 -1 16 10 15 11
-11 9 -28 -2 -30 0 -30 33 0 32 2 35 28 33 15 -1 25 2 22 8 -11 16 -54 10 -65
-10z"/>
<path d="M523 3973 c-4 -11 3 -24 21 -38 29 -23 23 -40 -11 -29 -16 5 -16 4
-1 -5 9 -6 23 -8 32 -5 22 9 20 41 -4 54 -27 14 -26 33 1 25 15 -5 19 -4 15 4
-11 17 -46 13 -53 -6z"/>
<path d="M2006 3975 c-3 -9 4 -24 19 -37 28 -24 24 -42 -8 -33 -20 5 -20 5 -4
-5 10 -7 25 -9 33 -6 21 8 17 44 -6 56 -11 6 -20 16 -20 22 0 5 9 8 20 5 11
-3 20 -1 20 4 0 15 -48 10 -54 -6z"/>
<path d="M2092 3978 c-31 -31 0 -105 33 -78 21 18 19 41 -5 47 -11 3 -20 12
-20 20 0 9 6 13 15 9 8 -3 15 -1 15 4 0 14 -24 12 -38 -2z m28 -59 c0 -11 -4
-17 -10 -14 -5 3 -10 13 -10 21 0 8 5 14 10 14 6 0 10 -9 10 -21z"/>
<path d="M5048 3933 c12 -2 30 -2 40 0 9 3 -1 5 -23 4 -22 0 -30 -2 -17 -4z"/>
<path d="M320 3740 l0 -90 135 0 135 0 0 40 0 40 540 0 540 0 0 -45 0 -45 108
0 c67 0 112 -4 119 -11 9 -9 51 14 165 89 84 56 150 102 145 102 -4 0 -64 -38
-134 -85 -119 -79 -128 -83 -145 -68 -17 15 -19 15 -36 0 -15 -13 -39 -17
-115 -17 l-97 0 0 45 0 45 -545 0 -545 0 0 45 0 45 -135 0 -135 0 0 -90z m260
0 l0 -80 -125 0 -125 0 0 80 0 80 125 0 125 0 0 -80z m1346 -81 c10 -17 -13
-36 -27 -22 -12 12 -4 33 11 33 5 0 12 -5 16 -11z"/>
<path d="M403 3733 c32 -2 81 -2 110 0 29 2 3 3 -58 3 -60 0 -84 -1 -52 -3z"/>
<path d="M490 3599 c-11 -8 -12 -12 -2 -16 6 -2 12 -20 12 -39 0 -21 4 -33 10
-29 12 7 14 95 3 95 -5 0 -15 -5 -23 -11z"/>
<path d="M1822 3530 c-1 -41 2 -49 8 -34 13 33 26 36 38 9 7 -14 16 -25 22
-25 6 0 4 14 -6 32 -13 25 -14 36 -5 50 15 25 -2 23 -25 -3 l-19 -21 -6 24
c-5 15 -7 3 -7 -32z"/>
<path d="M2218 3530 c-9 -27 -12 -50 -7 -50 5 0 9 5 9 10 0 6 11 10 25 10 14
0 25 -4 25 -10 0 -5 4 -10 9 -10 5 0 2 23 -7 50 -9 28 -21 50 -27 50 -6 0 -18
-22 -27 -50z m41 -12 c1 -5 -6 -8 -15 -8 -11 0 -14 5 -10 16 3 9 6 21 7 27 0
12 17 -20 18 -35z"/>
<path d="M2022 3533 c-10 -27 -11 -27 -17 -5 -4 12 -11 22 -16 22 -4 0 -3 -14
3 -30 5 -17 8 -39 5 -50 -3 -12 0 -17 8 -14 7 3 18 25 25 50 14 50 8 71 -8 27z"/>
<path d="M1917 3544 c-4 -4 -7 -17 -7 -30 0 -25 28 -40 44 -24 8 8 6 9 -5 5
-10 -4 -20 -2 -24 4 -4 7 4 11 20 11 20 0 26 4 23 18 -3 17 -38 29 -51 16z
m33 -14 c0 -5 -4 -10 -10 -10 -5 0 -10 5 -10 10 0 6 5 10 10 10 6 0 10 -4 10
-10z"/>
<path d="M2113 3533 c9 -2 25 -2 35 0 9 3 1 5 -18 5 -19 0 -27 -2 -17 -5z"/>
<path d="M2113 3513 c9 -2 25 -2 35 0 9 3 1 5 -18 5 -19 0 -27 -2 -17 -5z"/>
<path d="M4940 3231 c0 -44 19 -66 50 -56 17 5 20 14 18 53 l-1 47 -6 -45 c-8
-61 -35 -63 -39 -2 -4 53 -22 56 -22 3z"/>
<path d="M5040 3261 c0 -6 7 -8 16 -4 11 4 15 1 13 -13 -2 -10 0 -25 4 -31 12
-18 -2 -35 -22 -28 -12 5 -13 3 -5 -5 19 -19 57 6 45 28 -5 10 -9 27 -8 37 1
14 -5 21 -20 23 -13 2 -23 -1 -23 -7z"/>
<path d="M1160 2899 c0 -31 4 -48 10 -44 6 3 10 26 10 51 0 24 -4 44 -10 44
-5 0 -10 -23 -10 -51z"/>
<path d="M1200 2941 c0 -6 7 -8 16 -4 11 4 15 1 13 -13 -2 -10 0 -25 4 -31 12
-18 -2 -35 -22 -28 -11 4 -13 3 -5 -5 22 -23 44 0 41 43 -2 35 -7 43 -25 45
-12 2 -22 -1 -22 -7z"/>
<path d="M952 2888 c-2 -43 -5 -48 -29 -54 -92 -19 -146 -84 -146 -174 0 -90
54 -155 146 -174 l27 -6 0 -95 0 -95 468 0 c336 0 471 -3 479 -11 9 -9 51 14
165 89 84 56 150 102 145 102 -4 0 -64 -38 -134 -85 -119 -79 -128 -83 -145
-68 -17 15 -19 15 -36 0 -17 -15 -64 -17 -476 -17 l-457 0 3 92 c3 90 4 93 28
98 41 8 84 39 109 78 63 96 4 239 -109 262 -22 4 -26 12 -31 55 l-6 50 -1 -47z
m90 -90 c90 -63 100 -176 23 -253 -70 -70 -160 -70 -230 0 -45 45 -58 87 -48
152 8 45 78 119 119 126 46 7 107 -4 136 -25z m884 -489 c10 -17 -13 -36 -27
-22 -12 12 -4 33 11 33 5 0 12 -5 16 -11z"/>
<path d="M936 2782 c-20 -38 -20 -42 -1 -42 8 0 15 -6 15 -12 0 -9 3 -10 8 -2
4 6 12 13 19 15 8 3 6 14 -7 38 l-17 35 -17 -32z"/>
<path d="M892 2653 c1 -37 1 -37 5 -5 4 26 9 32 29 32 20 0 24 -5 24 -30 0
-28 3 -30 35 -30 33 0 35 2 34 33 -2 30 -2 30 -6 5 -3 -22 -10 -28 -29 -28
-20 0 -24 5 -24 30 0 28 -3 30 -35 30 -34 0 -35 -1 -33 -37z"/>
<path d="M952 2570 c0 -19 2 -27 5 -17 2 9 2 25 0 35 -3 9 -5 1 -5 -18z"/>
<path d="M1160 2775 c-10 -12 -10 -15 3 -15 11 0 17 -12 20 -37 3 -31 4 -29 5
15 2 53 -6 64 -28 37z"/>
<path d="M1229 2770 c-3 -14 -2 -38 2 -55 4 -16 7 -22 8 -12 1 22 17 22 25 1
4 -9 9 -14 12 -11 3 3 1 14 -5 25 -7 13 -7 22 1 30 9 9 9 12 1 12 -7 0 -15 -6
-20 -12 -5 -9 -10 -3 -13 17 -6 29 -6 29 -11 5z"/>
<path d="M1300 2739 c0 -31 4 -48 10 -44 6 3 10 15 10 26 0 32 38 24 43 -8 2
-16 4 -3 5 27 1 42 -1 50 -8 33 -12 -28 -40 -30 -40 -3 0 11 -4 20 -10 20 -5
0 -10 -23 -10 -51z"/>
<path d="M1407 2752 c8 -5 9 -13 3 -22 -17 -27 -11 -40 18 -39 16 1 20 3 10 6
-22 6 -22 8 -2 38 16 25 16 25 -12 25 -17 0 -24 -3 -17 -8z"/>
<path d="M1160 2625 c-10 -12 -10 -15 3 -15 11 0 17 -12 20 -37 3 -31 4 -29 5
15 2 53 -6 64 -28 37z"/>
<path d="M1240 2615 c-5 -14 -13 -37 -16 -51 -6 -24 -5 -25 15 -12 17 11 25
11 42 0 20 -13 21 -12 15 12 -12 47 -25 76 -36 76 -6 0 -15 -11 -20 -25z m30
-25 c0 -11 -4 -20 -10 -20 -5 0 -10 9 -10 20 0 11 5 20 10 20 6 0 10 -9 10
-20z"/>
<path d="M2006 2625 c-3 -9 4 -24 19 -37 28 -24 24 -42 -8 -33 -20 5 -20 5 -4
-5 10 -7 25 -9 33 -6 21 8 17 44 -6 56 -11 6 -20 16 -20 22 0 5 9 8 20 5 11
-3 20 -1 20 4 0 15 -48 10 -54 -6z"/>
<path d="M2090 2615 c0 -17 4 -23 14 -19 18 7 28 -9 20 -30 -4 -11 -13 -15
-28 -11 -19 5 -19 5 -3 -5 14 -9 22 -9 33 0 21 19 17 51 -7 57 -21 6 -21 7 -4
20 18 12 18 13 -3 13 -17 0 -22 -6 -22 -25z"/>
<path d="M4940 2210 c0 -46 2 -50 24 -50 28 0 56 24 56 46 0 32 -21 54 -50 54
-29 0 -30 -1 -30 -50z m55 0 c0 -25 -5 -36 -17 -38 -15 -3 -18 4 -18 38 0 34
3 41 18 38 12 -2 17 -13 17 -38z"/>
<path d="M5110 2209 c0 -31 4 -48 10 -44 6 3 10 12 10 20 0 7 8 16 18 18 16 4
16 5 0 6 -27 2 -23 39 5 44 16 3 13 5 -10 6 l-33 1 0 -51z"/>
<path d="M5190 2216 c0 -25 5 -48 10 -51 6 -3 10 3 10 14 0 12 8 21 23 24 l22
4 -22 2 c-16 1 -23 7 -23 20 0 12 8 21 23 24 16 3 13 5 -10 6 -32 1 -33 0 -33
-43z"/>
<path d="M1822 2180 c-1 -41 2 -49 8 -34 13 33 26 36 38 9 7 -14 16 -25 22
-25 6 0 4 14 -6 32 -13 25 -14 36 -5 50 15 25 -2 23 -25 -3 l-19 -21 -6 24
c-5 15 -7 3 -7 -32z"/>
<path d="M2218 2180 c-9 -27 -12 -50 -7 -50 5 0 9 5 9 10 0 6 11 10 25 10 14
0 25 -4 25 -10 0 -5 4 -10 9 -10 5 0 2 23 -7 50 -9 28 -21 50 -27 50 -6 0 -18
-22 -27 -50z m41 -12 c1 -5 -6 -8 -15 -8 -11 0 -14 5 -10 16 3 9 6 21 7 27 0
12 17 -20 18 -35z"/>
<path d="M2022 2183 c-10 -27 -11 -27 -17 -5 -4 12 -11 22 -16 22 -4 0 -3 -14
3 -30 5 -17 8 -39 5 -50 -3 -12 0 -17 8 -14 7 3 18 25 25 50 14 50 8 71 -8 27z"/>
<path d="M1917 2194 c-4 -4 -7 -17 -7 -30 0 -25 28 -40 44 -24 8 8 6 9 -5 5
-10 -4 -20 -2 -24 4 -4 7 4 11 20 11 20 0 26 4 23 18 -3 17 -38 29 -51 16z
m33 -14 c0 -5 -4 -10 -10 -10 -5 0 -10 5 -10 10 0 6 5 10 10 10 6 0 10 -4 10
-10z"/>
<path d="M2113 2183 c9 -2 25 -2 35 0 9 3 1 5 -18 5 -19 0 -27 -2 -17 -5z"/>
<path d="M2113 2163 c9 -2 25 -2 35 0 9 3 1 5 -18 5 -19 0 -27 -2 -17 -5z"/>
<path d="M5048 2133 c12 -2 30 -2 40 0 9 3 -1 5 -23 4 -22 0 -30 -2 -17 -4z"/>
</g>
</svg>
