<?xml version="1.0" standalone="no"?>
<!DOCTYPE svg PUBLIC "-//W3C//DTD SVG 20010904//EN"
 "http://www.w3.org/TR/2001/REC-SVG-20010904/DTD/svg10.dtd">
<svg version="1.0" xmlns="http://www.w3.org/2000/svg"
 width="972.000000pt" height="688.000000pt" viewBox="0 0 972.000000 688.000000"
 preserveAspectRatio="xMidYMid meet">

<g transform="translate(0.000000,688.000000) scale(0.100000,-0.100000)"
fill="#000000" stroke="none">
<path d="M442 5623 c2 -615 4 -1000 5 -855 l3 262 506 0 505 0 -1 -122 c-1
-68 -1 -189 -1 -270 l1 -148 4123 1 c2267 1 4110 4 4095 6 l-28 4 1 270 0 269
27 1 c15 0 21 3 15 6 -16 6 -19 563 -3 563 6 0 10 98 10 275 0 177 4 275 10
275 6 0 10 100 10 280 l0 280 -4125 0 c-2743 0 -4125 3 -4125 10 0 7 -178 10
-515 10 l-515 0 2 -1117z m9268 817 l0 -270 -4120 0 -4120 0 0 270 0 270 4120
0 4120 0 0 -270z m-8289 145 c0 -58 0 -134 0 -170 0 -36 0 -351 0 -700 l-1
-635 -465 0 -465 0 0 625 0 625 41 0 c37 0 39 1 25 16 -10 9 -15 29 -13 50 2
31 5 34 32 34 62 0 94 50 61 95 -10 14 -30 20 -80 23 l-66 4 0 69 0 69 465 0
465 0 1 -105z m-911 -145 c0 -60 -4 -100 -10 -100 -6 0 -10 40 -10 100 0 60 4
100 10 100 6 0 10 -40 10 -100z m88 88 c7 -7 12 -24 12 -38 0 -14 -5 -31 -12
-38 -16 -16 -48 -15 -49 1 -5 41 -5 73 -2 80 6 11 38 8 51 -5z m9092 -638 l0
-270 -4110 0 -4110 0 0 270 0 270 4110 0 4110 0 0 -270z m-7200 -570 l0 -270
-505 0 -505 0 0 270 0 270 505 0 505 0 0 -270z m1030 0 l0 -270 -510 0 -510 0
0 270 0 270 510 0 510 0 0 -270z m1020 0 l0 -270 -505 0 -505 0 0 270 0 270
505 0 505 0 0 -270z m1020 0 l0 -270 -505 0 -505 0 0 270 0 270 505 0 505 0 0
-270z m1020 0 l0 -270 -505 0 -505 0 0 270 0 270 505 0 505 0 0 -270z m1020 0
l0 -270 -505 0 -505 0 0 270 0 270 505 0 505 0 0 -270z m1030 0 l0 -270 -510
0 -510 0 0 270 0 270 510 0 510 0 0 -270z m1020 0 l0 -270 -505 0 -505 0 0
270 0 270 505 0 505 0 0 -270z m17 -137 c-1 -76 -3 -14 -3 137 0 151 2 213 3
138 2 -76 2 -200 0 -275z m-7187 -227 c0 -65 -3 -85 -15 -90 -10 -3 -15 1 -16
12 -1 16 -2 16 -6 0 -3 -11 -10 -15 -20 -11 -11 4 -14 2 -9 -5 4 -6 20 -10 36
-8 19 2 30 -1 30 -9 0 -8 -11 -11 -30 -9 -16 2 -32 -2 -36 -8 -5 -8 -2 -9 9
-5 12 4 17 1 18 -11 1 -16 2 -16 6 0 2 10 10 15 19 11 11 -4 14 -35 14 -164
l0 -159 -505 0 -505 0 1 270 0 270 504 0 505 0 0 -84z m1029 -186 l1 -270
-510 0 -510 0 0 270 0 270 509 0 510 0 0 -270z m1021 176 c0 -53 -4 -98 -10
-101 -5 -3 -11 2 -11 12 -1 16 -2 16 -6 1 -3 -11 -10 -15 -20 -11 -11 4 -14 3
-9 -6 5 -7 14 -10 20 -8 7 3 19 1 27 -4 12 -7 12 -9 -1 -10 -8 -1 -20 -1 -27
0 -6 1 -15 -4 -19 -10 -5 -9 -2 -10 9 -6 12 4 17 1 18 -11 1 -16 2 -16 6 1 2
9 9 15 14 12 5 -4 9 -73 9 -156 l0 -149 -505 0 -505 0 1 270 0 270 505 0 504
0 0 -94z m1020 -176 l0 -270 -505 0 -505 0 -1 155 c-1 85 -1 162 -1 170 0 8 0
60 1 115 l1 100 505 0 505 0 0 -270z m1020 0 l0 -270 -505 0 -505 0 0 270 0
270 505 0 505 0 0 -270z m1020 0 l0 -270 -505 0 -505 0 0 270 0 270 505 0 505
0 0 -270z m1030 0 l0 -270 -510 0 -510 0 0 270 0 270 510 0 510 0 0 -270z
m1019 0 l1 -270 -505 0 -505 0 0 270 0 270 505 0 504 0 0 -270z"/>
<path d="M4826 6619 c-18 -14 -26 -30 -26 -52 0 -43 7 -51 81 -100 68 -45 83
-72 54 -101 -34 -34 -98 -14 -120 37 l-14 32 0 -55 c-1 -32 3 -50 7 -42 7 10
18 10 55 1 54 -15 86 -5 113 36 30 46 10 83 -69 130 -74 44 -95 77 -62 102 39
28 89 10 110 -40 l14 -32 0 55 c1 37 -2 50 -8 41 -8 -12 -14 -13 -36 -3 -38
17 -69 15 -99 -9z"/>
<path d="M3863 6615 l27 -16 0 -120 c0 -115 -1 -120 -22 -129 -18 -7 -11 -9
32 -9 43 0 50 2 33 9 -22 9 -23 15 -23 110 0 55 1 100 3 100 2 0 43 -50 92
-111 68 -84 91 -106 95 -93 4 9 5 65 3 125 -4 98 -2 110 16 128 l21 21 -47 -1
c-27 -1 -40 -3 -31 -6 24 -6 29 -33 26 -133 l-3 -85 -86 110 c-81 104 -87 110
-125 113 l-39 2 28 -15z"/>
<path d="M4602 6584 c-1 -6 -14 -23 -28 -38 -15 -14 -22 -26 -15 -26 7 0 11
-24 11 -69 0 -38 4 -81 10 -95 11 -31 40 -34 63 -8 16 18 16 19 -5 18 -22 -1
-23 3 -26 76 -3 73 -2 77 20 81 22 4 23 4 1 6 -17 1 -23 9 -26 34 -2 17 -5 27
-5 21z"/>
<path d="M5072 6584 c-1 -6 -14 -23 -28 -38 -15 -14 -22 -26 -15 -26 7 0 11
-24 11 -69 0 -38 4 -81 10 -95 11 -31 40 -34 63 -8 16 18 16 19 -5 18 -22 -1
-23 3 -26 76 l-3 77 28 4 28 4 -27 2 c-22 1 -27 6 -31 34 -2 17 -5 27 -5 21z"/>
<path d="M5382 6584 c-1 -6 -14 -23 -28 -38 -15 -14 -22 -26 -16 -26 6 0 11
-35 13 -85 4 -91 14 -111 52 -101 32 8 43 33 13 32 -19 -1 -21 5 -24 76 l-3
77 28 4 28 4 -27 2 c-22 1 -27 6 -31 34 -2 17 -5 27 -5 21z"/>
<path d="M4195 6515 c-21 -20 -25 -34 -25 -80 0 -46 4 -60 25 -80 13 -14 36
-25 50 -25 14 0 37 11 50 25 29 28 35 57 7 32 -37 -34 -86 -15 -101 41 l-10
32 65 0 c51 0 64 3 64 15 0 25 -47 65 -75 65 -14 0 -37 -11 -50 -25z m75 -14
c15 -29 13 -31 -30 -31 -41 0 -52 14 -28 38 18 18 46 14 58 -7z"/>
<path d="M5169 6519 c-21 -21 -21 -40 -1 -47 7 -2 16 8 22 23 13 33 53 32 58
-2 3 -17 -6 -27 -36 -42 -50 -25 -64 -44 -60 -77 5 -40 31 -53 66 -32 25 15
29 15 38 1 11 -18 49 -10 58 12 3 9 0 12 -10 8 -11 -4 -14 9 -14 70 0 67 -3
78 -22 91 -31 22 -74 20 -99 -5z m70 -145 c-15 -18 -33 -18 -49 1 -17 20 -4
53 28 69 27 14 27 14 30 -21 2 -19 -2 -41 -9 -49z"/>
<path d="M5485 6515 c-21 -20 -25 -34 -25 -80 0 -46 4 -60 25 -80 39 -40 105
-25 118 26 5 19 4 20 -12 5 -10 -9 -27 -16 -39 -16 -22 0 -62 32 -62 49 0 5
-3 16 -6 25 -5 14 4 16 60 16 53 0 66 3 66 15 0 25 -47 65 -75 65 -14 0 -37
-11 -50 -25z m75 -14 c15 -29 13 -31 -30 -31 -41 0 -52 14 -28 38 18 18 46 14
58 -7z"/>
<path d="M4345 6518 c24 -14 52 -47 61 -71 4 -12 -7 -33 -31 -62 l-36 -45 33
0 c24 0 29 3 18 10 -13 8 -12 13 5 36 24 31 35 31 55 -2 13 -22 13 -26 0 -34
-11 -7 1 -10 38 -10 l54 0 -29 24 c-16 14 -38 41 -48 61 l-20 36 37 35 38 34
-34 0 c-28 0 -33 -3 -29 -18 2 -10 -2 -24 -11 -31 -12 -10 -17 -9 -26 9 -6 11
-8 25 -5 30 4 6 -13 10 -42 10 -41 -1 -45 -2 -28 -12z"/>
<path d="M1353 6493 c-16 -17 -18 -23 -8 -23 12 0 15 -15 15 -65 0 -71 17 -93
47 -62 14 14 14 15 -3 14 -16 -2 -19 6 -22 55 -3 52 -1 57 20 61 22 4 22 4 1
6 -12 0 -23 9 -25 19 -3 15 -5 15 -25 -5z"/>
<path d="M680 6467 c-20 -8 -22 -11 -7 -14 13 -4 17 -15 17 -53 0 -36 -5 -52
-17 -59 -14 -8 -9 -10 25 -11 39 0 42 1 28 16 -20 19 -21 87 -2 103 7 6 21 9
30 5 9 -3 16 -1 16 4 0 18 -20 24 -36 11 -11 -9 -18 -9 -22 -2 -5 7 -15 7 -32
0z"/>
<path d="M800 6460 c-43 -43 -13 -130 43 -130 26 0 57 28 57 51 -1 10 -3 9
-11 -3 -14 -25 -55 -22 -73 4 -24 34 -20 38 34 38 54 0 65 14 32 43 -25 23
-58 21 -82 -3z m58 -2 c20 -20 14 -28 -23 -28 -33 0 -35 2 -25 20 12 23 30 26
48 8z"/>
<path d="M943 6473 c-7 -2 -13 -17 -13 -33 0 -22 8 -33 36 -49 19 -12 34 -27
31 -34 -6 -20 -40 -21 -54 -1 -12 16 -13 16 -13 1 0 -21 42 -32 69 -17 33 17
26 47 -19 75 -40 25 -45 49 -12 58 13 4 13 5 2 5 -8 0 -21 -2 -27 -5z"/>
<path d="M997 6473 c-3 -5 -1 -17 4 -28 7 -17 8 -17 8 8 1 27 -4 34 -12 20z"/>
<path d="M1060 6460 c-43 -43 -13 -130 44 -130 24 0 56 32 56 55 0 5 -5 2 -11
-7 -14 -25 -55 -22 -73 4 -24 34 -20 38 34 38 54 0 65 14 32 43 -25 23 -58 21
-82 -3z m58 -2 c20 -20 14 -28 -23 -28 -33 0 -35 2 -25 20 12 23 30 26 48 8z"/>
<path d="M1192 6469 c-21 -8 -22 -10 -8 -25 21 -20 21 -78 0 -98 -14 -15 -12
-16 22 -16 30 0 35 3 26 12 -17 17 -15 93 3 108 8 7 22 10 30 6 19 -7 22 -112
3 -119 -7 -3 5 -5 27 -5 22 0 34 2 28 5 -8 3 -13 25 -13 62 0 31 -5 62 -12 69
-17 17 -43 15 -59 -4 -11 -14 -14 -14 -19 -1 -4 11 -11 12 -28 6z"/>
<path d="M592 6004 c-39 -27 -26 -63 36 -103 38 -25 52 -40 52 -57 0 -46 -69
-43 -95 4 l-14 27 -1 -32 c0 -30 2 -32 45 -39 58 -8 95 13 95 55 0 23 -10 35
-55 65 -56 37 -65 52 -43 74 21 21 48 13 68 -20 l20 -33 0 35 c0 34 -1 35 -43
37 -26 2 -51 -3 -65 -13z"/>
<path d="M753 5963 c-16 -17 -18 -23 -8 -23 12 0 15 -15 15 -65 0 -71 17 -93
47 -62 14 14 14 15 -3 14 -16 -2 -19 6 -22 55 -3 52 -1 57 20 61 22 4 22 4 1
6 -12 0 -23 9 -25 19 -3 15 -5 15 -25 -5z"/>
<path d="M993 5963 c-16 -17 -18 -23 -8 -23 12 0 15 -15 15 -65 0 -71 17 -93
47 -62 14 14 14 15 -3 14 -16 -2 -19 6 -22 55 -3 52 -1 57 20 61 22 4 22 4 1
6 -12 0 -23 9 -25 19 -3 15 -5 15 -25 -5z"/>
<path d="M852 5938 c-14 -14 -16 -38 -3 -38 5 0 13 9 16 21 8 24 38 22 43 -3
2 -12 -8 -23 -32 -35 -40 -18 -54 -46 -36 -68 14 -17 46 -20 55 -5 4 6 13 5
25 -2 15 -10 22 -10 32 0 9 9 9 12 0 12 -8 0 -12 18 -12 53 0 59 -12 77 -50
77 -14 0 -31 -5 -38 -12z m54 -104 c-7 -19 -35 -18 -43 3 -4 10 2 23 18 36
l24 19 3 -22 c2 -12 1 -28 -2 -36z"/>
<path d="M1090 5930 c-12 -12 -20 -33 -20 -55 0 -63 65 -99 103 -57 19 21 23
42 5 24 -19 -19 -55 -14 -72 10 -24 34 -20 38 34 38 54 0 65 14 32 43 -25 23
-58 21 -82 -3z m58 -2 c20 -20 14 -28 -23 -28 -33 0 -35 2 -25 20 12 23 30 26
48 8z"/>
<path d="M4226 6029 c-18 -14 -26 -30 -26 -52 0 -43 7 -51 81 -100 68 -45 83
-72 54 -101 -34 -34 -98 -14 -120 37 l-14 32 0 -55 c-1 -32 3 -50 7 -42 7 10
18 10 55 1 54 -15 86 -5 113 36 30 46 10 83 -69 130 -74 44 -95 77 -62 102 39
28 89 10 110 -40 l14 -32 0 55 c1 37 -2 50 -8 41 -8 -12 -14 -13 -36 -3 -38
17 -69 15 -99 -9z"/>
<path d="M4576 6029 c-18 -14 -26 -30 -26 -52 0 -43 7 -51 81 -100 68 -45 83
-72 54 -101 -34 -34 -98 -14 -120 37 l-14 32 0 -55 c-1 -32 3 -50 7 -42 7 10
18 10 55 1 54 -15 86 -5 112 35 27 41 12 83 -42 115 -78 45 -106 74 -99 99 16
50 97 36 121 -21 l14 -32 0 55 c1 37 -2 50 -8 41 -8 -12 -14 -13 -36 -3 -38
17 -69 15 -99 -9z"/>
<path d="M5230 6032 c-75 -37 -104 -142 -62 -222 41 -77 146 -92 206 -29 l31
32 -33 -26 c-65 -53 -149 -27 -173 54 -17 55 3 141 38 169 47 37 108 23 145
-33 11 -18 17 -24 14 -14 -3 10 -6 35 -6 55 0 25 -3 33 -9 23 -7 -11 -15 -11
-41 -2 -45 15 -69 14 -110 -7z"/>
<path d="M5476 6029 c-18 -14 -26 -30 -26 -52 0 -43 7 -51 81 -100 68 -45 83
-72 54 -101 -34 -34 -98 -14 -120 37 l-14 32 0 -55 c-1 -32 3 -50 7 -42 7 10
18 10 56 0 56 -15 92 0 114 46 21 43 0 81 -63 117 -67 38 -89 62 -80 88 15 49
96 34 120 -22 l14 -32 0 55 c1 37 -2 50 -8 41 -8 -12 -14 -13 -36 -3 -38 17
-69 15 -99 -9z"/>
<path d="M3795 6023 c4 -10 27 -74 52 -143 24 -69 48 -129 53 -134 4 -4 21 30
36 77 15 47 31 84 35 81 4 -2 20 -41 34 -85 15 -44 31 -77 35 -72 4 4 26 64
50 133 23 70 51 133 62 143 20 16 19 17 -28 16 -27 -1 -41 -3 -31 -6 9 -2 17
-14 17 -26 0 -23 -48 -166 -60 -180 -4 -5 -22 36 -39 90 -30 91 -31 99 -14
110 14 11 8 13 -43 13 -47 -1 -55 -3 -41 -11 11 -6 25 -26 33 -44 12 -30 11
-40 -10 -101 -15 -42 -26 -63 -30 -54 -20 50 -56 166 -56 181 0 10 8 20 18 22
9 3 -5 5 -32 6 -42 1 -47 -1 -41 -16z"/>
<path d="M4788 6030 c21 -9 22 -14 22 -135 0 -121 -1 -126 -22 -135 -16 -6 12
-9 89 -9 l111 -1 11 31 c16 45 14 47 -14 16 -22 -23 -34 -27 -80 -27 l-55 0 0
60 0 60 45 0 c38 0 47 -4 55 -22 7 -18 9 -11 9 32 0 43 -2 50 -9 33 -8 -19
-17 -23 -55 -23 l-45 0 0 55 0 55 54 0 c45 0 58 -4 71 -22 l16 -23 -3 30 -3
30 -110 2 c-75 1 -103 -1 -87 -7z"/>
<path d="M4435 5770 c-9 -15 4 -30 26 -30 26 0 24 -15 -7 -39 -15 -12 -21 -21
-15 -21 16 0 61 46 61 63 0 30 -50 51 -65 27z"/>
<path d="M5045 5770 c-9 -15 4 -30 26 -30 26 0 24 -15 -7 -39 -15 -12 -21 -21
-15 -21 16 0 61 46 61 63 0 30 -50 51 -65 27z"/>
<path d="M1616 5379 c-22 -26 -26 -40 -26 -94 0 -54 4 -68 26 -94 30 -36 61
-40 92 -11 41 38 48 108 20 183 -21 55 -73 62 -112 16z m78 -1 c18 -26 22
-131 6 -173 -12 -32 -37 -42 -57 -22 -23 23 -29 133 -10 180 18 42 39 47 61
15z"/>
<path d="M1806 5379 c-22 -26 -26 -40 -26 -94 0 -54 4 -68 26 -94 15 -18 35
-31 48 -31 48 0 92 85 79 154 -18 93 -78 124 -127 65z m78 -1 c20 -28 21 -142
3 -178 -7 -14 -21 -25 -32 -25 -31 0 -46 42 -43 121 4 97 36 133 72 82z"/>
<path d="M1996 5379 c-22 -26 -26 -40 -26 -94 0 -54 4 -68 26 -94 50 -60 110
-28 128 69 12 68 -32 150 -80 150 -13 0 -33 -13 -48 -31z m78 -1 c18 -26 22
-131 6 -173 -13 -33 -37 -42 -58 -21 -22 22 -24 174 -3 199 18 23 37 21 55 -5z"/>
<path d="M2676 5399 c-22 -26 -26 -40 -26 -94 0 -54 4 -68 26 -94 50 -60 110
-28 128 69 12 68 -32 150 -80 150 -13 0 -33 -13 -48 -31z m78 -1 c10 -15 16
-45 16 -85 0 -70 -12 -111 -36 -120 -28 -11 -46 22 -51 94 -8 106 32 167 71
111z"/>
<path d="M2866 5399 c-22 -26 -26 -40 -26 -94 0 -54 4 -68 26 -94 79 -94 172
58 109 179 -26 50 -72 54 -109 9z m78 -1 c20 -28 21 -142 3 -178 -7 -14 -21
-25 -32 -25 -31 0 -46 42 -43 121 4 97 36 133 72 82z"/>
<path d="M3083 5420 c-25 -10 -31 -22 -10 -17 9 1 13 -26 15 -105 2 -95 1
-107 -15 -111 -10 -3 5 -5 32 -6 38 0 46 2 33 10 -16 9 -18 26 -18 124 0 63
-3 115 -7 114 -5 0 -18 -4 -30 -9z"/>
<path d="M3676 5369 c-22 -26 -26 -40 -26 -94 0 -54 4 -68 26 -94 15 -18 35
-31 48 -31 48 0 93 84 81 150 -17 97 -78 130 -129 69z m78 -1 c20 -28 21 -142
3 -178 -7 -14 -21 -25 -32 -25 -11 0 -25 11 -32 25 -28 55 -6 200 31 200 8 0
22 -10 30 -22z"/>
<path d="M3893 5390 c-25 -10 -31 -22 -10 -17 9 1 13 -26 15 -105 2 -95 1
-107 -15 -111 -10 -3 5 -5 32 -6 38 0 46 2 33 10 -16 9 -18 26 -18 124 0 63
-3 115 -7 114 -5 0 -18 -4 -30 -9z"/>
<path d="M4056 5369 c-22 -26 -26 -40 -26 -94 0 -54 4 -68 26 -94 33 -40 65
-40 98 -1 33 40 43 105 22 155 -30 71 -78 85 -120 34z m78 -1 c20 -28 21 -142
3 -178 -7 -14 -21 -25 -32 -25 -11 0 -25 11 -32 25 -28 55 -6 200 31 200 8 0
22 -10 30 -22z"/>
<path d="M4746 5399 c-22 -26 -26 -40 -26 -94 0 -54 4 -68 26 -94 15 -18 35
-31 49 -31 29 0 74 52 77 88 1 15 2 36 3 47 2 28 -22 87 -42 103 -28 20 -60
14 -87 -19z m78 -1 c18 -26 22 -131 6 -173 -13 -33 -37 -42 -58 -21 -22 22
-24 174 -3 199 18 23 37 21 55 -5z"/>
<path d="M4963 5420 c-25 -10 -31 -22 -10 -17 9 1 13 -26 15 -105 2 -95 1
-107 -15 -111 -10 -3 5 -5 32 -6 38 0 46 2 33 10 -16 9 -18 26 -18 124 0 63
-3 115 -7 114 -5 0 -18 -4 -30 -9z"/>
<path d="M5153 5420 c-25 -10 -31 -22 -10 -17 9 1 13 -26 15 -105 2 -95 1
-107 -15 -111 -10 -3 7 -5 37 -5 42 -1 50 1 33 8 -22 9 -23 14 -23 125 0 63
-3 115 -7 114 -5 0 -18 -4 -30 -9z"/>
<path d="M5733 5400 c-25 -10 -31 -22 -10 -17 9 1 13 -26 15 -105 2 -95 1
-107 -15 -111 -10 -3 5 -5 32 -6 38 0 46 2 33 10 -16 9 -18 26 -18 124 0 63
-3 115 -7 114 -5 0 -18 -4 -30 -9z"/>
<path d="M5896 5379 c-22 -26 -26 -40 -26 -94 0 -54 4 -68 26 -94 33 -40 65
-40 98 -1 33 40 43 105 22 155 -30 71 -78 85 -120 34z m78 -1 c18 -26 22 -131
6 -173 -12 -32 -37 -42 -57 -22 -23 23 -29 133 -10 180 18 42 39 47 61 15z"/>
<path d="M6086 5379 c-22 -26 -26 -40 -26 -94 0 -54 4 -68 26 -94 44 -53 102
-31 123 46 13 47 13 49 0 96 -22 79 -78 100 -123 46z m78 -1 c18 -26 22 -131
6 -173 -12 -32 -37 -42 -57 -22 -23 23 -29 133 -10 180 18 42 39 47 61 15z"/>
<path d="M6763 5400 c-25 -10 -31 -22 -10 -17 9 1 13 -26 15 -105 2 -95 1
-107 -15 -111 -10 -3 7 -5 37 -5 42 -1 50 1 33 8 -22 9 -23 14 -23 125 0 63
-3 115 -7 114 -5 0 -18 -4 -30 -9z"/>
<path d="M6926 5379 c-22 -26 -26 -40 -26 -94 0 -54 4 -68 26 -94 44 -53 102
-31 123 46 14 50 14 67 -3 106 -30 73 -77 87 -120 36z m78 -1 c10 -15 16 -45
16 -85 0 -70 -12 -111 -36 -120 -28 -11 -46 22 -51 94 -8 106 32 167 71 111z"/>
<path d="M7143 5400 c-25 -10 -31 -22 -10 -17 9 1 13 -26 15 -105 2 -95 1
-107 -15 -111 -10 -3 5 -5 32 -6 38 0 46 2 33 10 -16 9 -18 26 -18 124 0 63
-3 115 -7 114 -5 0 -18 -4 -30 -9z"/>
<path d="M7763 5400 c-25 -10 -31 -22 -10 -17 9 1 13 -26 15 -105 2 -95 1
-107 -15 -111 -10 -3 7 -5 37 -5 42 -1 50 1 33 8 -22 9 -23 14 -23 125 0 63
-3 115 -7 114 -5 0 -18 -4 -30 -9z"/>
<path d="M7953 5400 c-25 -10 -31 -22 -10 -17 9 1 13 -26 15 -105 2 -95 1
-107 -15 -111 -10 -3 7 -5 37 -5 42 -1 50 1 33 8 -22 9 -23 14 -23 125 0 63
-3 115 -7 114 -5 0 -18 -4 -30 -9z"/>
<path d="M8116 5379 c-22 -26 -26 -40 -26 -94 0 -54 4 -68 26 -94 33 -40 65
-40 98 -1 34 41 42 104 21 158 -28 69 -76 82 -119 31z m78 -1 c18 -26 22 -131
6 -173 -12 -32 -37 -42 -57 -22 -23 23 -29 133 -10 180 18 42 39 47 61 15z"/>
<path d="M8783 5400 c-25 -10 -31 -22 -10 -17 9 1 13 -26 15 -105 2 -95 1
-107 -15 -111 -10 -3 7 -5 37 -5 42 -1 50 1 33 8 -22 9 -23 14 -23 125 0 63
-3 115 -7 114 -5 0 -18 -4 -30 -9z"/>
<path d="M8973 5400 c-25 -10 -31 -22 -10 -17 9 1 13 -26 15 -105 2 -95 1
-107 -15 -111 -10 -3 7 -5 37 -5 42 -1 50 1 33 8 -22 9 -23 14 -23 125 0 63
-3 115 -7 114 -5 0 -18 -4 -30 -9z"/>
<path d="M9163 5400 c-25 -10 -31 -22 -10 -17 9 1 13 -26 15 -105 2 -95 1
-107 -15 -111 -10 -3 7 -5 37 -5 42 -1 50 1 33 8 -22 9 -23 14 -23 125 0 63
-3 115 -7 114 -5 0 -18 -4 -30 -9z"/>
<path d="M1781 4878 c-1 -12 -6 -15 -18 -11 -10 4 -14 2 -10 -4 4 -6 18 -10
32 -10 14 0 28 4 32 10 4 6 0 8 -10 4 -10 -4 -17 0 -20 11 -4 16 -5 16 -6 0z"/>
<path d="M2111 4878 c-1 -12 -6 -15 -18 -11 -10 4 -14 2 -10 -4 4 -6 18 -10
32 -10 14 0 28 4 32 10 4 6 0 8 -10 4 -10 -4 -17 0 -20 11 -4 16 -5 16 -6 0z"/>
<path d="M1532 4864 c-18 -12 -22 -24 -20 -52 3 -32 10 -42 52 -69 51 -35 83
-45 46 -15 l-22 17 21 19 c29 26 28 80 -1 100 -28 20 -48 20 -76 0z m67 -8
c17 -20 10 -77 -11 -90 -26 -16 -52 4 -56 43 -4 36 12 61 38 61 10 0 23 -6 29
-14z"/>
<path d="M1662 4867 c-10 -12 -8 -13 12 -10 30 6 40 -10 25 -39 -11 -21 -11
-22 5 -9 24 20 17 65 -10 69 -11 2 -26 -3 -32 -11z"/>
<path d="M1862 4864 c-18 -12 -22 -24 -20 -52 3 -32 10 -42 52 -69 51 -35 83
-45 46 -15 l-22 17 21 19 c29 26 28 80 -1 100 -28 20 -48 20 -76 0z m66 -6 c7
-7 12 -26 12 -43 0 -52 -48 -76 -70 -36 -22 42 -6 91 30 91 9 0 21 -5 28 -12z"/>
<path d="M2009 4878 c0 -2 -1 -31 -2 -66 -2 -60 -1 -62 23 -61 14 0 19 3 13 6
-9 3 -13 26 -13 64 0 33 -4 59 -10 59 -5 0 -10 -1 -11 -2z"/>
<path d="M2192 4864 c-18 -12 -22 -24 -20 -52 3 -32 10 -42 52 -69 51 -35 83
-45 46 -15 l-22 17 21 19 c29 26 28 80 -1 100 -28 20 -48 20 -76 0z m67 -8
c17 -20 10 -77 -11 -90 -26 -16 -52 4 -56 43 -4 36 12 61 38 61 10 0 23 -6 29
-14z"/>
<path d="M2320 4861 c-21 -40 -5 -111 25 -111 23 0 45 30 45 61 0 41 -17 69
-40 69 -11 0 -24 -9 -30 -19z m49 -14 c10 -26 4 -74 -11 -83 -17 -11 -31 14
-30 51 2 58 25 75 41 32z"/>
<path d="M1764 4834 c-16 -13 -16 -15 -2 -10 10 3 18 -2 21 -12 4 -16 5 -16 6
0 1 11 6 15 16 12 21 -9 19 3 -4 15 -13 8 -23 6 -37 -5z"/>
<path d="M2094 4834 c-16 -13 -16 -15 -2 -10 10 3 18 -2 21 -12 4 -16 5 -16 6
0 1 11 6 15 16 12 21 -9 19 3 -4 15 -13 8 -23 6 -37 -5z"/>
<path d="M1695 4772 c-46 -5 -55 -22 -13 -22 20 0 40 5 43 11 9 14 6 15 -30
11z"/>
<path d="M2831 4858 c-1 -12 -6 -15 -18 -11 -10 4 -14 2 -10 -4 4 -6 18 -10
32 -10 14 0 28 4 32 10 4 6 0 8 -10 4 -10 -4 -17 0 -20 11 -4 16 -5 16 -6 0z"/>
<path d="M3161 4858 c-1 -12 -6 -15 -18 -11 -10 4 -14 2 -10 -4 4 -6 18 -10
32 -10 14 0 28 4 32 10 4 6 0 8 -10 4 -10 -4 -17 0 -20 11 -4 16 -5 16 -6 0z"/>
<path d="M3490 4855 c0 -9 -6 -12 -17 -9 -17 5 -17 5 -1 -8 15 -13 15 -15 0
-27 -16 -11 -16 -12 0 -7 10 3 18 -2 20 -12 3 -9 4 4 5 31 0 26 -1 47 -3 47
-2 0 -4 -7 -4 -15z"/>
<path d="M2582 4844 c-18 -12 -22 -24 -20 -52 3 -32 10 -42 52 -69 51 -35 83
-45 46 -15 l-22 17 21 19 c29 26 28 80 -1 100 -28 20 -48 20 -76 0z m67 -8
c17 -20 10 -77 -11 -90 -26 -16 -52 4 -56 43 -4 36 12 61 38 61 10 0 23 -6 29
-14z"/>
<path d="M2712 4847 c-10 -12 -8 -13 12 -10 30 6 40 -10 26 -39 -11 -22 -11
-22 5 -3 9 11 14 29 13 40 -4 24 -40 32 -56 12z"/>
<path d="M2912 4844 c-18 -12 -22 -24 -20 -52 3 -32 10 -42 52 -69 51 -35 83
-45 46 -15 l-22 17 21 19 c29 26 28 80 -1 100 -28 20 -48 20 -76 0z m67 -8
c17 -20 10 -77 -11 -90 -26 -16 -52 4 -56 43 -4 36 12 61 38 61 10 0 23 -6 29
-14z"/>
<path d="M3059 4858 c0 -2 -1 -31 -2 -66 -2 -60 -1 -62 23 -61 14 0 19 3 13 6
-9 3 -13 26 -13 64 0 33 -4 59 -10 59 -5 0 -10 -1 -11 -2z"/>
<path d="M3242 4844 c-18 -12 -22 -24 -20 -52 3 -32 10 -42 52 -69 51 -35 83
-45 46 -15 l-22 17 21 19 c29 26 28 80 -1 100 -28 20 -48 20 -76 0z m66 -6 c7
-7 12 -26 12 -43 0 -52 -48 -76 -70 -36 -22 42 -6 91 30 91 9 0 21 -5 28 -12z"/>
<path d="M3370 4841 c-21 -40 -5 -111 25 -111 23 0 45 30 45 61 0 41 -17 69
-40 69 -11 0 -24 -9 -30 -19z m50 -15 c11 -30 -2 -81 -20 -81 -18 0 -30 54
-19 83 11 29 27 28 39 -2z"/>
<path d="M2814 4814 c-16 -13 -16 -15 -2 -10 10 3 18 -2 21 -12 4 -16 5 -16 6
0 1 11 6 15 16 12 21 -9 19 3 -4 15 -13 8 -23 6 -37 -5z"/>
<path d="M3144 4814 c-16 -13 -16 -15 -2 -10 10 3 18 -2 21 -12 4 -16 5 -16 6
0 1 11 6 15 16 12 21 -9 19 3 -4 15 -13 8 -23 6 -37 -5z"/>
<path d="M2745 4752 c-46 -5 -55 -22 -13 -22 20 0 40 5 43 11 9 14 6 15 -30
11z"/>
<path d="M3841 4858 c-1 -12 -6 -15 -18 -11 -10 4 -14 2 -10 -4 4 -6 18 -10
32 -10 14 0 28 4 32 10 4 6 0 8 -10 4 -10 -4 -17 0 -20 11 -4 16 -5 16 -6 0z"/>
<path d="M4171 4858 c-1 -12 -6 -15 -18 -11 -10 4 -14 2 -10 -4 4 -6 18 -10
32 -10 14 0 28 4 32 10 4 6 0 8 -10 4 -10 -4 -17 0 -20 11 -4 16 -5 16 -6 0z"/>
<path d="M3592 4844 c-18 -12 -22 -24 -20 -52 3 -32 10 -42 52 -69 51 -35 83
-45 46 -15 l-22 17 21 19 c29 26 28 80 -1 100 -28 20 -48 20 -76 0z m67 -8
c17 -20 10 -77 -11 -90 -26 -16 -52 4 -56 43 -4 36 12 61 38 61 10 0 23 -6 29
-14z"/>
<path d="M3722 4847 c-10 -12 -8 -13 12 -10 30 6 40 -10 25 -39 -11 -21 -11
-22 5 -9 24 20 17 65 -10 69 -11 2 -26 -3 -32 -11z"/>
<path d="M3922 4844 c-18 -12 -22 -24 -20 -52 3 -32 10 -42 52 -69 51 -35 83
-45 46 -15 l-22 17 21 19 c29 26 28 80 -1 100 -28 20 -48 20 -76 0z m66 -6 c7
-7 12 -26 12 -43 0 -52 -48 -76 -70 -36 -22 42 -6 91 30 91 9 0 21 -5 28 -12z"/>
<path d="M4069 4858 c0 -2 -1 -31 -2 -66 -2 -60 -1 -62 23 -61 14 0 19 3 13 6
-9 3 -13 26 -13 64 0 33 -4 59 -10 59 -5 0 -10 -1 -11 -2z"/>
<path d="M4252 4844 c-18 -12 -22 -24 -20 -52 3 -32 10 -42 52 -69 51 -35 83
-45 46 -15 l-22 17 21 19 c29 26 28 80 -1 100 -28 20 -48 20 -76 0z m66 -6 c7
-7 12 -26 12 -43 0 -52 -48 -76 -70 -36 -22 42 -6 91 30 91 9 0 21 -5 28 -12z"/>
<path d="M4380 4841 c-21 -40 -5 -111 25 -111 23 0 45 30 45 61 0 41 -17 69
-40 69 -11 0 -24 -9 -30 -19z m49 -14 c10 -26 4 -74 -11 -83 -17 -11 -31 14
-30 51 2 58 25 75 41 32z"/>
<path d="M3824 4814 c-16 -13 -16 -15 -2 -10 10 3 18 -2 21 -12 4 -16 5 -16 6
0 1 11 6 15 16 12 21 -9 19 3 -4 15 -13 8 -23 6 -37 -5z"/>
<path d="M4154 4814 c-16 -13 -16 -15 -2 -10 10 3 18 -2 21 -12 4 -16 5 -16 6
0 1 11 6 15 16 12 21 -9 19 3 -4 15 -13 8 -23 6 -37 -5z"/>
<path d="M3755 4752 c-46 -5 -55 -22 -13 -22 20 0 40 5 43 11 9 14 6 15 -30
11z"/>
<path d="M4841 4858 c-1 -12 -6 -15 -18 -11 -10 4 -14 2 -10 -4 4 -6 18 -10
32 -10 14 0 28 4 32 10 4 6 0 8 -10 4 -10 -4 -17 0 -20 11 -4 16 -5 16 -6 0z"/>
<path d="M5171 4858 c-1 -12 -6 -15 -18 -11 -10 4 -14 2 -10 -4 4 -6 18 -10
32 -10 14 0 28 4 32 10 4 6 0 8 -10 4 -10 -4 -17 0 -20 11 -4 16 -5 16 -6 0z"/>
<path d="M5501 4858 c-1 -12 -6 -15 -18 -11 -10 4 -14 2 -10 -4 4 -6 18 -10
32 -10 14 0 28 4 32 10 4 6 0 8 -10 4 -10 -4 -17 0 -20 11 -4 16 -5 16 -6 0z"/>
<path d="M4592 4844 c-18 -12 -22 -24 -20 -52 3 -32 10 -42 52 -69 51 -35 83
-45 46 -15 l-22 17 21 19 c29 26 28 80 -1 100 -28 20 -48 20 -76 0z m67 -8
c17 -20 10 -77 -11 -90 -26 -16 -52 4 -56 43 -4 36 12 61 38 61 10 0 23 -6 29
-14z"/>
<path d="M4722 4847 c-10 -12 -8 -13 12 -10 30 6 40 -10 26 -39 -11 -22 -11
-22 5 -3 9 11 14 29 13 40 -4 24 -40 32 -56 12z"/>
<path d="M4922 4844 c-18 -12 -22 -24 -20 -52 3 -32 10 -42 52 -69 51 -35 83
-45 46 -15 l-22 17 21 19 c29 26 28 80 -1 100 -28 20 -48 20 -76 0z m66 -6 c7
-7 12 -26 12 -43 0 -52 -48 -76 -70 -36 -22 42 -6 91 30 91 9 0 21 -5 28 -12z"/>
<path d="M5069 4858 c0 -2 -1 -31 -2 -66 -2 -60 -1 -62 23 -61 14 0 19 3 13 6
-9 3 -13 26 -13 64 0 33 -4 59 -10 59 -5 0 -10 -1 -11 -2z"/>
<path d="M5252 4844 c-18 -12 -22 -24 -20 -52 3 -32 10 -42 52 -69 51 -35 83
-45 46 -15 l-22 17 21 19 c29 26 28 80 -1 100 -28 20 -48 20 -76 0z m66 -6 c7
-7 12 -26 12 -43 0 -52 -48 -76 -70 -36 -22 42 -6 91 30 91 9 0 21 -5 28 -12z"/>
<path d="M5380 4841 c-22 -42 -3 -111 30 -111 19 0 40 33 40 61 0 41 -17 69
-40 69 -11 0 -24 -9 -30 -19z m50 -15 c11 -30 -2 -81 -21 -81 -15 0 -25 64
-15 91 8 22 25 17 36 -10z"/>
<path d="M4824 4814 c-16 -13 -16 -15 -2 -10 10 3 18 -2 21 -12 4 -16 5 -16 6
0 1 11 6 15 16 12 21 -9 19 3 -4 15 -13 8 -23 6 -37 -5z"/>
<path d="M5154 4814 c-16 -13 -16 -15 -2 -10 10 3 18 -2 21 -12 4 -16 5 -16 6
0 1 11 6 15 16 12 21 -9 19 3 -4 15 -13 8 -23 6 -37 -5z"/>
<path d="M5484 4814 c-16 -13 -16 -15 -2 -10 10 3 18 -2 21 -12 4 -16 5 -16 6
0 1 11 6 15 16 12 21 -9 19 3 -4 15 -13 8 -23 6 -37 -5z"/>
<path d="M4755 4752 c-46 -5 -55 -22 -13 -22 20 0 40 5 43 11 9 14 6 15 -30
11z"/>
<path d="M5841 4868 c-1 -12 -6 -15 -18 -11 -10 4 -14 2 -10 -4 4 -6 18 -10
32 -10 14 0 28 4 32 10 4 6 0 8 -10 4 -10 -4 -17 0 -20 11 -4 16 -5 16 -6 0z"/>
<path d="M6171 4868 c-1 -12 -6 -15 -18 -11 -10 4 -14 2 -10 -4 4 -6 18 -10
32 -10 14 0 28 4 32 10 4 6 0 8 -10 4 -10 -4 -17 0 -20 11 -4 16 -5 16 -6 0z"/>
<path d="M6501 4868 c-1 -12 -6 -15 -18 -11 -10 4 -14 2 -10 -4 4 -6 18 -10
32 -10 14 0 28 4 32 10 4 6 0 8 -10 4 -10 -4 -17 0 -20 11 -4 16 -5 16 -6 0z"/>
<path d="M5592 4854 c-18 -12 -22 -24 -20 -52 3 -32 10 -42 52 -69 51 -35 83
-45 46 -15 l-22 17 21 19 c29 26 28 80 -1 100 -28 20 -48 20 -76 0z m66 -6 c7
-7 12 -26 12 -43 0 -52 -48 -76 -70 -36 -22 42 -6 91 30 91 9 0 21 -5 28 -12z"/>
<path d="M5722 4857 c-10 -12 -8 -13 12 -10 30 6 40 -10 25 -39 -11 -21 -11
-22 5 -9 24 20 17 65 -10 69 -11 2 -26 -3 -32 -11z"/>
<path d="M5922 4854 c-18 -12 -22 -24 -20 -52 3 -32 10 -42 52 -69 51 -35 83
-45 46 -15 l-22 17 21 19 c29 26 28 80 -1 100 -28 20 -48 20 -76 0z m66 -6 c7
-7 12 -26 12 -43 0 -52 -48 -76 -70 -36 -22 42 -6 91 30 91 9 0 21 -5 28 -12z"/>
<path d="M6069 4868 c0 -2 -1 -31 -2 -66 -2 -60 -1 -62 23 -61 14 0 19 3 13 6
-9 3 -13 26 -13 64 0 33 -4 59 -10 59 -5 0 -10 -1 -11 -2z"/>
<path d="M6252 4854 c-18 -12 -22 -24 -20 -52 3 -32 10 -42 52 -69 51 -35 83
-45 46 -15 l-22 17 21 19 c29 26 28 80 -1 100 -28 20 -48 20 -76 0z m66 -6 c7
-7 12 -26 12 -43 0 -52 -48 -76 -70 -36 -22 42 -6 91 30 91 9 0 21 -5 28 -12z"/>
<path d="M6380 4851 c-21 -40 -5 -111 25 -111 23 0 45 30 45 61 0 41 -17 69
-40 69 -11 0 -24 -9 -30 -19z m50 -15 c11 -30 -2 -81 -20 -81 -18 0 -30 54
-19 83 11 29 27 28 39 -2z"/>
<path d="M5824 4824 c-16 -13 -16 -15 -2 -10 10 3 18 -2 21 -12 4 -16 5 -16 6
0 1 11 6 15 16 12 21 -9 19 3 -4 15 -13 8 -23 6 -37 -5z"/>
<path d="M6154 4824 c-16 -13 -16 -15 -2 -10 10 3 18 -2 21 -12 4 -16 5 -16 6
0 1 11 6 15 16 12 21 -9 19 3 -4 15 -13 8 -23 6 -37 -5z"/>
<path d="M6484 4824 c-16 -13 -16 -15 -2 -10 10 3 18 -2 21 -12 4 -16 5 -16 6
0 1 11 6 15 16 12 21 -9 19 3 -4 15 -13 8 -23 6 -37 -5z"/>
<path d="M5755 4762 c-46 -5 -55 -22 -13 -22 20 0 40 5 43 11 9 14 6 15 -30
11z"/>
<path d="M6881 4858 c-1 -12 -6 -15 -18 -11 -10 4 -14 2 -10 -4 4 -6 18 -10
32 -10 14 0 28 4 32 10 4 6 0 8 -10 4 -10 -4 -17 0 -20 11 -4 16 -5 16 -6 0z"/>
<path d="M7211 4858 c-1 -12 -6 -15 -18 -11 -10 4 -14 2 -10 -4 4 -6 18 -10
32 -10 14 0 28 4 32 10 4 6 0 8 -10 4 -10 -4 -17 0 -20 11 -4 16 -5 16 -6 0z"/>
<path d="M7541 4858 c-1 -12 -6 -15 -18 -11 -10 4 -14 2 -10 -4 4 -6 18 -10
32 -10 14 0 28 4 32 10 4 6 0 8 -10 4 -10 -4 -17 0 -20 11 -4 16 -5 16 -6 0z"/>
<path d="M6632 4844 c-18 -12 -22 -24 -20 -52 3 -32 10 -42 52 -69 51 -35 83
-45 46 -15 l-22 17 21 19 c29 26 28 80 -1 100 -28 20 -48 20 -76 0z m66 -6 c7
-7 12 -26 12 -43 0 -52 -48 -76 -70 -36 -22 42 -6 91 30 91 9 0 21 -5 28 -12z"/>
<path d="M6762 4847 c-10 -12 -8 -13 12 -10 30 6 40 -10 25 -39 -11 -21 -11
-22 5 -9 24 20 17 65 -10 69 -11 2 -26 -3 -32 -11z"/>
<path d="M6962 4844 c-18 -12 -22 -24 -20 -52 3 -32 10 -42 52 -69 51 -35 83
-45 46 -15 l-22 17 21 19 c29 26 28 80 -1 100 -28 20 -48 20 -76 0z m66 -6 c7
-7 12 -26 12 -43 0 -52 -48 -76 -70 -36 -22 42 -6 91 30 91 9 0 21 -5 28 -12z"/>
<path d="M7109 4858 c0 -2 -1 -31 -2 -66 -2 -60 -1 -62 23 -61 14 0 19 3 13 6
-9 3 -13 26 -13 64 0 33 -4 59 -10 59 -5 0 -10 -1 -11 -2z"/>
<path d="M7292 4844 c-18 -12 -22 -24 -20 -52 3 -32 10 -42 52 -69 51 -35 83
-45 46 -15 l-22 17 21 19 c29 26 28 80 -1 100 -28 20 -48 20 -76 0z m66 -6 c7
-7 12 -26 12 -43 0 -52 -48 -76 -70 -36 -22 42 -6 91 30 91 9 0 21 -5 28 -12z"/>
<path d="M7420 4841 c-21 -40 -5 -111 25 -111 23 0 45 30 45 61 0 41 -17 69
-40 69 -11 0 -24 -9 -30 -19z m49 -14 c10 -26 4 -74 -11 -83 -17 -11 -31 14
-30 51 2 58 25 75 41 32z"/>
<path d="M6864 4814 c-16 -13 -16 -15 -2 -10 10 3 18 -2 21 -12 4 -16 5 -16 6
0 1 11 6 15 16 12 21 -9 19 3 -4 15 -13 8 -23 6 -37 -5z"/>
<path d="M7194 4814 c-16 -13 -16 -15 -2 -10 10 3 18 -2 21 -12 4 -16 5 -16 6
0 1 11 6 15 16 12 21 -9 19 3 -4 15 -13 8 -23 6 -37 -5z"/>
<path d="M7524 4814 c-16 -13 -16 -15 -2 -10 10 3 18 -2 21 -12 4 -16 5 -16 6
0 1 11 6 15 16 12 21 -9 19 3 -4 15 -13 8 -23 6 -37 -5z"/>
<path d="M6795 4752 c-46 -5 -55 -22 -13 -22 20 0 40 5 43 11 9 14 6 15 -30
11z"/>
<path d="M7891 4838 c-1 -12 -6 -15 -18 -11 -10 4 -14 2 -10 -4 4 -6 18 -10
32 -10 14 0 28 4 32 10 4 6 0 8 -10 4 -10 -4 -17 0 -20 11 -4 16 -5 16 -6 0z"/>
<path d="M8221 4838 c-1 -12 -6 -15 -18 -11 -10 4 -14 2 -10 -4 4 -6 18 -10
32 -10 14 0 28 4 32 10 4 6 0 8 -10 4 -10 -4 -17 0 -20 11 -4 16 -5 16 -6 0z"/>
<path d="M8551 4838 c-1 -12 -6 -15 -18 -11 -10 4 -14 2 -10 -4 4 -6 18 -10
32 -10 14 0 28 4 32 10 4 6 0 8 -10 4 -10 -4 -17 0 -20 11 -4 16 -5 16 -6 0z"/>
<path d="M7642 4824 c-18 -12 -22 -24 -20 -52 3 -32 10 -42 52 -69 51 -35 83
-45 46 -15 l-22 17 21 19 c29 26 28 80 -1 100 -28 20 -48 20 -76 0z m66 -6 c7
-7 12 -26 12 -43 0 -52 -48 -76 -70 -36 -22 42 -6 91 30 91 9 0 21 -5 28 -12z"/>
<path d="M7772 4827 c-10 -12 -8 -13 12 -10 30 6 40 -10 26 -39 -11 -22 -11
-22 5 -3 9 11 14 29 13 40 -4 24 -40 32 -56 12z"/>
<path d="M7972 4824 c-18 -12 -22 -24 -20 -52 3 -32 10 -42 52 -69 51 -35 83
-45 46 -15 l-22 17 21 19 c29 26 28 80 -1 100 -28 20 -48 20 -76 0z m67 -8
c17 -20 10 -77 -11 -90 -26 -16 -52 4 -56 43 -4 36 12 61 38 61 10 0 23 -6 29
-14z"/>
<path d="M8119 4838 c0 -2 -1 -31 -2 -66 -2 -60 -1 -62 23 -61 14 0 19 3 13 6
-9 3 -13 26 -13 64 0 33 -4 59 -10 59 -5 0 -10 -1 -11 -2z"/>
<path d="M8302 4824 c-18 -12 -22 -24 -20 -52 3 -32 10 -42 52 -69 51 -35 83
-45 46 -15 l-22 17 21 19 c29 26 28 80 -1 100 -28 20 -48 20 -76 0z m66 -6 c7
-7 12 -26 12 -43 0 -52 -48 -76 -70 -36 -22 42 -6 91 30 91 9 0 21 -5 28 -12z"/>
<path d="M8430 4821 c-22 -42 -3 -111 30 -111 19 0 40 33 40 61 0 41 -17 69
-40 69 -11 0 -24 -9 -30 -19z m50 -15 c11 -30 -2 -81 -21 -81 -15 0 -25 64
-15 91 8 22 25 17 36 -10z"/>
<path d="M7874 4794 c-16 -13 -16 -15 -2 -10 10 3 18 -2 21 -12 4 -16 5 -16 6
0 1 11 6 15 16 12 21 -9 19 3 -4 15 -13 8 -23 6 -37 -5z"/>
<path d="M8204 4794 c-16 -13 -16 -15 -2 -10 10 3 18 -2 21 -12 4 -16 5 -16 6
0 1 11 6 15 16 12 21 -9 19 3 -4 15 -13 8 -23 6 -37 -5z"/>
<path d="M8534 4794 c-16 -13 -16 -15 -2 -10 10 3 18 -2 21 -12 4 -16 5 -16 6
0 1 11 6 15 16 12 21 -9 19 3 -4 15 -13 8 -23 6 -37 -5z"/>
<path d="M7805 4732 c-46 -5 -55 -22 -13 -22 20 0 40 5 43 11 9 14 6 15 -30
11z"/>
<path d="M8961 4828 c-1 -12 -6 -15 -18 -11 -10 4 -14 2 -10 -4 4 -6 18 -10
32 -10 14 0 28 4 32 10 4 6 0 8 -10 4 -10 -4 -17 0 -20 11 -4 16 -5 16 -6 0z"/>
<path d="M9291 4828 c-1 -12 -6 -15 -18 -11 -10 4 -14 2 -10 -4 4 -6 18 -10
32 -10 14 0 28 4 32 10 4 6 0 8 -10 4 -10 -4 -17 0 -20 11 -4 16 -5 16 -6 0z"/>
<path d="M9620 4825 c0 -9 -6 -12 -17 -9 -17 5 -17 5 -1 -8 15 -13 15 -15 0
-27 -16 -11 -16 -12 0 -7 10 3 18 -2 20 -12 3 -9 4 4 5 31 0 26 -1 47 -3 47
-2 0 -4 -7 -4 -15z"/>
<path d="M8712 4814 c-18 -12 -22 -24 -20 -52 3 -32 10 -42 52 -69 51 -35 83
-45 46 -15 l-22 17 21 19 c29 26 28 80 -1 100 -28 20 -48 20 -76 0z m66 -6 c7
-7 12 -26 12 -43 0 -52 -48 -76 -70 -36 -22 42 -6 91 30 91 9 0 21 -5 28 -12z"/>
<path d="M8842 4817 c-10 -12 -8 -13 12 -10 30 6 40 -10 25 -39 -11 -21 -11
-22 5 -9 24 20 17 65 -10 69 -11 2 -26 -3 -32 -11z"/>
<path d="M9042 4814 c-18 -12 -22 -24 -20 -52 3 -32 10 -42 52 -69 51 -35 83
-45 46 -15 l-22 17 21 19 c29 26 28 80 -1 100 -28 20 -48 20 -76 0z m66 -6 c7
-7 12 -26 12 -43 0 -52 -48 -76 -70 -36 -22 42 -6 91 30 91 9 0 21 -5 28 -12z"/>
<path d="M9189 4828 c0 -2 -1 -31 -2 -66 -2 -60 -1 -62 23 -61 14 0 19 3 13 6
-9 3 -13 26 -13 64 0 33 -4 59 -10 59 -5 0 -10 -1 -11 -2z"/>
<path d="M9372 4814 c-18 -12 -22 -24 -20 -52 3 -32 10 -42 52 -69 51 -35 83
-45 46 -15 l-22 17 21 19 c29 26 28 80 -1 100 -28 20 -48 20 -76 0z m66 -6 c7
-7 12 -26 12 -43 0 -52 -48 -76 -70 -36 -22 42 -6 91 30 91 9 0 21 -5 28 -12z"/>
<path d="M9500 4811 c-21 -40 -5 -111 25 -111 23 0 45 30 45 61 0 41 -17 69
-40 69 -11 0 -24 -9 -30 -19z m50 -15 c11 -30 -2 -81 -21 -81 -15 0 -25 64
-15 91 8 22 25 17 36 -10z"/>
<path d="M8944 4784 c-16 -13 -16 -15 -2 -10 10 3 18 -2 21 -12 4 -16 5 -16 6
0 1 11 6 15 16 12 21 -9 19 3 -4 15 -13 8 -23 6 -37 -5z"/>
<path d="M9274 4784 c-16 -13 -16 -15 -2 -10 10 3 18 -2 21 -12 4 -16 5 -16 6
0 1 11 6 15 16 12 21 -9 19 3 -4 15 -13 8 -23 6 -37 -5z"/>
<path d="M8875 4722 c-46 -5 -55 -22 -13 -22 20 0 40 5 43 11 9 14 6 15 -30
11z"/>
<path d="M612 4844 c-18 -12 -22 -24 -20 -52 3 -32 10 -42 52 -69 51 -35 83
-45 46 -15 l-22 17 21 19 c29 26 28 80 -1 100 -28 20 -48 20 -76 0z m67 -8
c17 -20 10 -77 -11 -90 -26 -16 -52 4 -56 43 -4 36 12 61 38 61 10 0 23 -6 29
-14z"/>
<path d="M742 4847 c-10 -12 -8 -13 12 -10 30 6 40 -10 25 -39 -11 -21 -11
-22 5 -9 24 20 17 65 -10 69 -11 2 -26 -3 -32 -11z"/>
<path d="M852 4844 c-18 -12 -22 -24 -20 -52 3 -32 10 -42 52 -69 51 -35 83
-45 46 -15 l-22 17 21 19 c29 26 28 80 -1 100 -28 20 -48 20 -76 0z m66 -6
c16 -16 16 -70 0 -86 -18 -18 -46 -14 -58 7 -22 42 -6 91 30 91 9 0 21 -5 28
-12z"/>
<path d="M999 4858 c0 -2 -1 -31 -2 -66 -2 -60 -1 -62 23 -61 14 0 19 3 13 6
-9 3 -13 26 -13 64 0 33 -4 59 -10 59 -5 0 -10 -1 -11 -2z"/>
<path d="M1092 4844 c-18 -12 -22 -24 -20 -52 3 -32 10 -42 52 -69 51 -35 83
-45 46 -15 l-22 17 21 19 c29 26 28 80 -1 100 -28 20 -48 20 -76 0z m67 -8
c17 -20 10 -77 -11 -90 -26 -16 -52 4 -56 43 -4 36 12 61 38 61 10 0 23 -6 29
-14z"/>
<path d="M1220 4841 c-21 -40 -5 -111 25 -111 23 0 45 30 45 61 0 41 -17 69
-40 69 -11 0 -24 -9 -30 -19z m49 -14 c16 -41 -7 -103 -29 -81 -23 23 -15 104
10 104 6 0 14 -10 19 -23z"/>
<path d="M1439 4828 c0 -7 -2 -20 -3 -28 -2 -8 0 -24 4 -35 5 -13 7 -4 7 28 0
26 -1 47 -3 47 -2 0 -4 -6 -5 -12z"/>
<path d="M775 4752 c-46 -5 -55 -22 -13 -22 20 0 40 5 43 11 9 14 6 15 -30 11z"/>
<path d="M460 2275 l0 -2205 4605 0 4605 0 0 2205 0 2205 -4605 0 -4605 0 0
-2205z m1020 1925 l0 -270 -505 0 -505 0 0 270 0 270 505 0 505 0 0 -270z
m1030 0 l0 -270 -510 0 -510 0 0 270 0 270 510 0 510 0 0 -270z m1020 0 l0
-270 -505 0 -505 0 0 270 0 270 505 0 505 0 0 -270z m1020 0 l0 -270 -505 0
-505 0 0 270 0 270 505 0 505 0 0 -270z m1020 0 l0 -270 -505 0 -505 0 0 270
0 270 505 0 505 0 0 -270z m1020 0 l0 -270 -505 0 -505 0 0 270 0 270 505 0
505 0 0 -270z m1030 0 l0 -270 -510 0 -510 0 0 270 0 270 510 0 510 0 0 -270z
m1020 0 l0 -270 -505 0 -505 0 0 270 0 270 505 0 505 0 0 -270z m1020 0 l0
-270 -505 0 -505 0 0 270 0 270 505 0 505 0 0 -270z m-8180 -550 l0 -270 -505
0 -505 0 0 270 0 270 505 0 505 0 0 -270z m1030 0 l0 -270 -510 0 -510 0 0
270 0 270 510 0 510 0 0 -270z m1020 0 l0 -270 -505 0 -505 0 0 270 0 270 505
0 505 0 0 -270z m1020 0 l0 -270 -505 0 -505 0 0 270 0 270 505 0 505 0 0
-270z m1020 0 l0 -270 -505 0 -505 0 0 270 0 270 505 0 505 0 0 -270z m1020 0
l0 -270 -505 0 -505 0 0 270 0 270 505 0 505 0 0 -270z m1030 0 l0 -270 -510
0 -510 0 0 270 0 270 510 0 510 0 0 -270z m1020 0 l0 -270 -505 0 -505 0 0
270 0 270 505 0 505 0 0 -270z m1020 0 l0 -270 -505 0 -505 0 0 270 0 270 505
0 505 0 0 -270z m-8180 -550 l0 -270 -505 0 -505 0 0 270 0 270 505 0 505 0 0
-270z m1030 0 l0 -270 -510 0 -510 0 0 270 0 270 510 0 510 0 0 -270z m1020 0
l0 -270 -505 0 -505 0 0 270 0 270 505 0 505 0 0 -270z m1020 0 l0 -270 -505
0 -505 0 0 270 0 270 505 0 505 0 0 -270z m1020 0 l0 -270 -505 0 -505 0 0
270 0 270 505 0 505 0 0 -270z m1020 0 l0 -270 -505 0 -505 0 0 270 0 270 505
0 505 0 0 -270z m1030 0 l0 -270 -510 0 -510 0 0 270 0 270 510 0 510 0 0
-270z m1020 0 l0 -270 -505 0 -505 0 0 270 0 270 505 0 505 0 0 -270z m1020 0
l0 -270 -505 0 -505 0 0 270 0 270 505 0 505 0 0 -270z m-8180 -550 l0 -270
-505 0 -505 0 0 270 0 270 505 0 505 0 0 -270z m1030 0 l0 -270 -510 0 -510 0
0 270 0 270 510 0 510 0 0 -270z m1020 0 l0 -270 -505 0 -505 0 0 270 0 270
505 0 505 0 0 -270z m1020 0 l0 -270 -505 0 -505 0 0 270 0 270 505 0 505 0 0
-270z m1020 0 l0 -270 -505 0 -505 0 0 270 0 270 505 0 505 0 0 -270z m1020 0
l0 -270 -505 0 -505 0 0 270 0 270 505 0 505 0 0 -270z m1030 0 l0 -270 -510
0 -510 0 0 270 0 270 510 0 510 0 0 -270z m1020 0 l0 -270 -505 0 -505 0 0
270 0 270 505 0 505 0 0 -270z m1020 0 l0 -270 -505 0 -505 0 0 270 0 270 505
0 505 0 0 -270z m-8180 -550 l0 -270 -505 0 -505 0 0 270 0 270 505 0 505 0 0
-270z m1030 0 l0 -270 -510 0 -510 0 0 270 0 270 510 0 510 0 0 -270z m1020 0
l0 -270 -505 0 -505 0 0 270 0 270 505 0 505 0 0 -270z m1020 0 l0 -270 -505
0 -505 0 0 270 0 270 505 0 505 0 0 -270z m1020 0 l0 -270 -505 0 -505 0 0
270 0 270 505 0 505 0 0 -270z m1020 0 l0 -270 -505 0 -505 0 0 270 0 270 505
0 505 0 0 -270z m1030 0 l0 -270 -510 0 -510 0 0 270 0 270 510 0 510 0 0
-270z m1020 0 l0 -270 -505 0 -505 0 0 270 0 270 505 0 505 0 0 -270z m1020 0
l0 -270 -505 0 -505 0 0 270 0 270 505 0 505 0 0 -270z m-8180 -550 l0 -270
-505 0 -505 0 0 270 0 270 505 0 505 0 0 -270z m1030 0 l0 -270 -510 0 -510 0
0 270 0 270 510 0 510 0 0 -270z m1020 0 l0 -270 -505 0 -505 0 0 270 0 270
505 0 505 0 0 -270z m1020 0 l0 -270 -505 0 -505 0 0 270 0 270 505 0 505 0 0
-270z m1020 0 l0 -270 -505 0 -505 0 0 270 0 270 505 0 505 0 0 -270z m1020 0
l0 -270 -505 0 -505 0 0 270 0 270 505 0 505 0 0 -270z m1030 0 l0 -270 -510
0 -510 0 0 270 0 270 510 0 510 0 0 -270z m1020 0 l0 -270 -505 0 -505 0 0
270 0 270 505 0 505 0 0 -270z m1020 0 l0 -270 -505 0 -505 0 0 270 0 270 505
0 505 0 0 -270z m-8180 -550 l0 -270 -505 0 -505 0 0 270 0 270 505 0 505 0 0
-270z m1030 0 l0 -270 -510 0 -510 0 0 270 0 270 510 0 510 0 0 -270z m1020 0
l0 -270 -505 0 -505 0 0 270 0 270 505 0 505 0 0 -270z m1020 0 l0 -270 -505
0 -505 0 0 270 0 270 505 0 505 0 0 -270z m1020 0 l0 -270 -505 0 -505 0 0
270 0 270 505 0 505 0 0 -270z m1020 0 l0 -270 -505 0 -505 0 0 270 0 270 505
0 505 0 0 -270z m1030 0 l0 -270 -510 0 -510 0 0 270 0 270 510 0 510 0 0
-270z m1020 0 l0 -270 -505 0 -505 0 0 270 0 270 505 0 505 0 0 -270z m1020 0
l0 -270 -505 0 -505 0 0 270 0 270 505 0 505 0 0 -270z m-8180 -550 l0 -270
-505 0 -505 0 0 270 0 270 505 0 505 0 0 -270z m1030 0 l0 -270 -510 0 -510 0
0 270 0 270 510 0 510 0 0 -270z m1020 0 l0 -270 -505 0 -505 0 0 270 0 270
505 0 505 0 0 -270z m1020 0 l0 -270 -505 0 -505 0 0 270 0 270 505 0 505 0 0
-270z m1020 0 l0 -270 -505 0 -505 0 0 270 0 270 505 0 505 0 0 -270z m1020 0
l0 -270 -505 0 -505 0 0 270 0 270 505 0 505 0 0 -270z m1030 0 l0 -270 -510
0 -510 0 0 270 0 270 510 0 510 0 0 -270z m1020 0 l0 -270 -505 0 -505 0 0
270 0 270 505 0 505 0 0 -270z m1020 0 l0 -270 -505 0 -505 0 0 270 0 270 505
0 505 0 0 -270z"/>
<path d="M676 4208 c-33 -78 -68 -150 -78 -160 -17 -17 -16 -18 29 -18 41 0
45 2 29 13 -17 12 -17 18 -7 50 l13 37 62 0 c58 0 64 -2 74 -25 16 -36 15 -52
-5 -64 -14 -8 -3 -10 44 -11 l62 0 -22 23 c-12 12 -47 84 -77 160 -30 75 -57
137 -60 137 -3 0 -32 -64 -64 -142z m83 -5 l21 -53 -54 0 -55 0 26 60 c15 33
30 57 34 53 4 -5 17 -32 28 -60z"/>
<path d="M1618 4330 c21 -9 22 -14 22 -145 0 -131 -1 -136 -22 -145 -16 -6 5
-9 72 -9 80 -1 103 3 140 22 101 50 109 201 14 264 -22 14 -52 18 -138 20 -79
2 -104 0 -88 -7z m205 -49 c29 -29 32 -37 32 -97 0 -63 -1 -67 -37 -100 -31
-28 -45 -34 -83 -34 l-45 0 0 136 0 137 51 -5 c40 -4 58 -12 82 -37z"/>
<path d="M2648 4330 c21 -9 22 -14 22 -145 0 -131 -1 -136 -22 -145 -16 -6 5
-9 72 -9 113 -1 168 19 200 71 26 44 27 122 0 165 -34 57 -62 68 -184 70 -79
2 -104 0 -88 -7z m205 -49 c29 -29 32 -37 32 -97 0 -63 -1 -67 -37 -100 -31
-28 -45 -34 -83 -34 l-45 0 0 136 0 137 51 -5 c40 -4 58 -12 82 -37z"/>
<path d="M3668 4330 c21 -9 22 -14 22 -145 0 -131 -1 -136 -22 -145 -16 -6 5
-9 72 -9 80 -1 103 3 140 22 101 50 109 201 14 264 -22 14 -52 18 -138 20 -79
2 -104 0 -88 -7z m205 -49 c29 -29 32 -37 32 -97 0 -63 -1 -67 -37 -100 -31
-28 -45 -34 -83 -34 l-45 0 0 136 0 137 51 -5 c40 -4 58 -12 82 -37z"/>
<path d="M4688 4330 c21 -9 22 -14 22 -145 0 -131 -1 -136 -22 -145 -16 -6 5
-9 72 -9 113 -1 168 19 200 71 26 44 27 122 0 165 -34 57 -62 68 -184 70 -79
2 -104 0 -88 -7z m205 -49 c29 -29 32 -37 32 -97 0 -63 -1 -67 -37 -100 -31
-28 -45 -34 -83 -34 l-45 0 0 136 0 137 51 -5 c40 -4 58 -12 82 -37z"/>
<path d="M5700 4333 c33 -12 40 -36 40 -148 0 -112 -6 -136 -40 -148 -8 -3 41
-5 109 -4 l124 2 14 40 14 40 -30 -32 c-27 -30 -35 -33 -90 -33 l-61 0 0 65 0
65 50 0 c43 0 52 -3 60 -22 7 -18 9 -13 9 27 0 39 -2 46 -10 33 -7 -13 -23
-18 -59 -18 l-50 0 0 60 0 61 62 -3 c55 -3 64 -6 75 -28 12 -24 13 -24 13 13
l0 37 -122 -1 c-68 0 -116 -3 -108 -6z"/>
<path d="M6730 4333 c33 -12 40 -36 40 -148 0 -112 -6 -136 -40 -148 -8 -3 41
-5 109 -4 l124 2 14 40 14 40 -31 -33 c-28 -31 -33 -33 -87 -30 l-58 3 -3 63
-3 62 51 0 c43 0 52 -3 60 -22 7 -18 9 -13 9 27 0 39 -2 46 -10 33 -7 -13 -23
-18 -59 -18 l-50 0 0 60 0 61 62 -3 c55 -3 64 -6 75 -28 12 -24 13 -24 13 13
l0 37 -122 -1 c-68 0 -116 -3 -108 -6z"/>
<path d="M7750 4333 c33 -12 40 -36 40 -148 0 -112 -6 -136 -40 -148 -8 -3 41
-5 109 -4 l124 2 14 40 14 40 -31 -33 c-28 -31 -33 -33 -87 -30 l-58 3 -3 63
-3 62 51 0 c43 0 52 -3 60 -22 7 -18 9 -13 9 27 0 39 -2 46 -10 33 -7 -13 -23
-18 -59 -18 l-50 0 0 60 0 61 62 -3 c55 -3 64 -6 75 -28 12 -24 13 -24 13 13
l0 37 -122 -1 c-68 0 -116 -3 -108 -6z"/>
<path d="M8770 4333 c33 -12 40 -36 40 -148 0 -112 -6 -136 -40 -148 -8 -3 41
-5 109 -4 l124 2 14 40 14 40 -31 -33 c-28 -31 -33 -33 -87 -30 l-58 3 -3 63
-3 62 51 0 c43 0 52 -3 60 -22 7 -18 9 -13 9 27 0 39 -2 46 -10 33 -7 -13 -23
-18 -59 -18 l-50 0 0 60 0 61 62 -3 c55 -3 64 -6 75 -28 12 -24 13 -24 13 13
l0 37 -122 -1 c-68 0 -116 -3 -108 -6z"/>
<path d="M598 3780 c21 -9 22 -14 22 -145 0 -131 -1 -136 -22 -145 -35 -13
162 -12 202 1 58 21 72 117 19 134 -24 8 -24 16 1 38 38 32 20 90 -35 113 -21
9 -68 14 -122 13 -63 0 -82 -3 -65 -9z m155 -21 c68 -36 41 -109 -40 -109
l-43 0 0 60 0 60 31 0 c17 0 40 -5 52 -11z m10 -140 c29 -16 37 -28 37 -61 0
-36 -33 -58 -87 -58 l-43 0 0 65 0 65 36 0 c19 0 45 -5 57 -11z"/>
<path d="M1618 3780 c21 -9 22 -14 22 -145 0 -131 -1 -136 -22 -145 -16 -6 5
-9 72 -9 80 -1 103 3 140 22 101 50 109 201 14 264 -22 14 -52 18 -138 20 -79
2 -104 0 -88 -7z m205 -49 c29 -29 32 -37 32 -97 0 -63 -1 -67 -37 -100 -31
-28 -45 -34 -83 -34 l-45 0 0 136 0 137 51 -5 c40 -4 58 -12 82 -37z"/>
<path d="M2648 3780 c21 -9 22 -14 22 -145 0 -131 -1 -136 -22 -145 -16 -6 5
-9 72 -9 80 -1 103 3 140 22 101 50 109 201 14 264 -22 14 -52 18 -138 20 -79
2 -104 0 -88 -7z m205 -49 c29 -29 32 -37 32 -97 0 -63 -1 -67 -37 -100 -31
-28 -45 -34 -83 -34 l-45 0 0 136 0 137 51 -5 c40 -4 58 -12 82 -37z"/>
<path d="M3668 3780 c21 -9 22 -14 22 -145 0 -131 -1 -136 -22 -145 -16 -6 5
-9 72 -9 80 -1 103 3 140 22 101 50 109 201 14 264 -22 14 -52 18 -138 20 -79
2 -104 0 -88 -7z m205 -49 c29 -29 32 -37 32 -97 0 -63 -1 -67 -37 -100 -31
-28 -45 -34 -83 -34 l-45 0 0 136 0 137 51 -5 c40 -4 58 -12 82 -37z"/>
<path d="M4688 3780 c21 -9 22 -14 22 -145 0 -131 -1 -136 -22 -145 -16 -6 5
-9 72 -9 113 -1 168 19 200 71 26 44 27 122 0 165 -34 57 -62 68 -184 70 -79
2 -104 0 -88 -7z m205 -49 c29 -29 32 -37 32 -97 0 -63 -1 -67 -37 -100 -31
-28 -45 -34 -83 -34 l-45 0 0 136 0 137 51 -5 c40 -4 58 -12 82 -37z"/>
<path d="M5700 3783 c33 -12 40 -36 40 -148 0 -112 -6 -136 -40 -148 -8 -3 41
-5 109 -4 l124 2 14 40 14 40 -31 -33 c-28 -31 -33 -33 -87 -30 l-58 3 -3 63
-3 62 51 0 c43 0 52 -3 60 -22 7 -18 9 -13 9 27 0 39 -2 46 -10 33 -7 -13 -23
-18 -59 -18 l-50 0 0 60 0 61 62 -3 c55 -3 64 -6 75 -28 12 -24 13 -24 13 13
l0 37 -122 -1 c-68 0 -116 -3 -108 -6z"/>
<path d="M6730 3783 c33 -12 40 -36 40 -148 0 -112 -6 -136 -40 -148 -8 -3 41
-5 109 -4 l124 2 14 40 14 40 -30 -32 c-27 -30 -35 -33 -90 -33 l-61 0 0 65 0
65 50 0 c43 0 52 -3 60 -22 7 -18 9 -13 9 27 0 39 -2 46 -10 33 -7 -13 -23
-18 -59 -18 l-50 0 0 60 0 61 62 -3 c55 -3 64 -6 75 -28 12 -24 13 -24 13 13
l0 37 -122 -1 c-68 0 -116 -3 -108 -6z"/>
<path d="M7750 3783 c33 -12 40 -36 40 -148 0 -112 -6 -136 -40 -148 -8 -3 41
-5 109 -4 l124 2 14 40 14 40 -31 -33 c-28 -31 -33 -33 -87 -30 l-58 3 -3 63
-3 62 51 0 c43 0 52 -3 60 -22 7 -18 9 -13 9 27 0 39 -2 46 -10 33 -7 -13 -23
-18 -59 -18 l-50 0 0 60 0 61 62 -3 c55 -3 64 -6 75 -28 12 -24 13 -24 13 13
l0 37 -122 -1 c-68 0 -116 -3 -108 -6z"/>
<path d="M8776 3783 c29 -5 34 -28 34 -154 0 -106 -7 -130 -40 -142 -8 -3 41
-5 109 -4 l124 2 14 40 14 40 -31 -33 c-28 -31 -33 -33 -87 -30 l-58 3 -3 63
-3 62 51 0 c43 0 52 -3 60 -22 7 -18 9 -13 9 27 0 39 -2 46 -10 33 -7 -13 -23
-18 -59 -18 l-50 0 0 60 0 61 62 -3 c55 -3 64 -6 75 -28 12 -24 13 -24 13 13
l0 37 -122 -1 c-68 -1 -113 -4 -102 -6z"/>
<path d="M685 3236 c-138 -62 -123 -285 22 -312 44 -8 104 9 129 37 l19 21
-35 -21 c-88 -53 -180 3 -180 111 0 99 40 158 106 158 35 0 94 -41 94 -65 0
-8 3 -16 8 -18 4 -3 5 19 4 49 -3 43 -7 53 -17 44 -9 -7 -21 -7 -39 0 -36 13
-75 12 -111 -4z"/>
<path d="M1618 3230 c21 -9 22 -14 22 -145 0 -131 -1 -136 -22 -145 -16 -6 5
-9 72 -9 113 -1 168 19 200 71 26 44 27 122 0 165 -34 57 -62 68 -184 70 -79
2 -104 0 -88 -7z m205 -49 c29 -29 32 -37 32 -97 0 -63 -1 -67 -37 -100 -31
-28 -45 -34 -83 -34 l-45 0 0 136 0 137 51 -5 c40 -4 58 -12 82 -37z"/>
<path d="M2648 3230 c21 -9 22 -14 22 -145 0 -131 -1 -136 -22 -145 -16 -6 5
-9 72 -9 113 -1 168 19 200 71 26 44 27 122 0 165 -34 57 -62 68 -184 70 -79
2 -104 0 -88 -7z m205 -49 c29 -29 32 -37 32 -97 0 -63 -1 -67 -37 -100 -31
-28 -45 -34 -83 -34 l-45 0 0 136 0 137 51 -5 c40 -4 58 -12 82 -37z"/>
<path d="M3668 3230 c21 -9 22 -14 22 -145 0 -131 -1 -136 -22 -145 -16 -6 5
-9 72 -9 113 -1 168 19 200 71 26 44 27 122 0 165 -34 57 -62 68 -184 70 -79
2 -104 0 -88 -7z m205 -49 c29 -29 32 -37 32 -97 0 -63 -1 -67 -37 -100 -31
-28 -45 -34 -83 -34 l-45 0 0 136 0 137 51 -5 c40 -4 58 -12 82 -37z"/>
<path d="M4688 3230 c21 -9 22 -14 22 -145 0 -131 -1 -136 -22 -145 -16 -6 5
-9 72 -9 113 -1 168 19 200 71 26 44 27 122 0 165 -34 57 -62 68 -184 70 -79
2 -104 0 -88 -7z m205 -49 c29 -29 32 -37 32 -97 0 -63 -1 -67 -37 -100 -31
-28 -45 -34 -83 -34 l-45 0 0 136 0 137 51 -5 c40 -4 58 -12 82 -37z"/>
<path d="M5700 3233 c33 -12 40 -36 40 -148 0 -112 -6 -136 -40 -148 -8 -3 41
-5 109 -4 l124 2 14 40 14 40 -30 -32 c-27 -30 -35 -33 -90 -33 l-61 0 0 65 0
65 50 0 c43 0 52 -3 60 -22 7 -18 9 -13 9 27 0 39 -2 46 -10 33 -7 -13 -23
-18 -59 -18 l-50 0 0 60 0 61 62 -3 c55 -3 64 -6 75 -28 12 -24 13 -24 13 13
l0 37 -122 -1 c-68 0 -116 -3 -108 -6z"/>
<path d="M6736 3233 c29 -5 34 -28 34 -154 0 -106 -7 -130 -40 -142 -8 -3 41
-5 109 -4 l124 2 14 40 14 40 -31 -33 c-28 -31 -33 -33 -87 -30 l-58 3 -3 63
-3 62 51 0 c43 0 52 -3 60 -22 7 -18 9 -13 9 27 0 39 -2 46 -10 33 -7 -13 -23
-18 -59 -18 l-50 0 0 60 0 61 62 -3 c55 -3 64 -6 75 -28 12 -24 13 -24 13 13
l0 37 -122 -1 c-68 -1 -113 -4 -102 -6z"/>
<path d="M7750 3233 c33 -12 40 -36 40 -148 0 -112 -6 -136 -40 -148 -8 -3 41
-5 109 -4 l124 2 14 40 14 40 -31 -33 c-28 -31 -33 -33 -87 -30 l-58 3 -3 63
-3 62 51 0 c43 0 52 -3 60 -22 7 -18 9 -13 9 27 0 39 -2 46 -10 33 -7 -13 -23
-18 -59 -18 l-50 0 0 60 0 61 62 -3 c55 -3 64 -6 75 -28 12 -24 13 -24 13 13
l0 37 -122 -1 c-68 0 -116 -3 -108 -6z"/>
<path d="M8770 3233 c33 -12 40 -36 40 -148 0 -112 -6 -136 -40 -148 -8 -3 41
-5 109 -4 l124 2 14 40 14 40 -31 -33 c-28 -31 -33 -33 -87 -30 l-58 3 -3 63
-3 62 51 0 c43 0 52 -3 60 -22 7 -18 9 -13 9 27 0 39 -2 46 -10 33 -7 -13 -23
-18 -59 -18 l-50 0 0 60 0 61 62 -3 c55 -3 64 -6 75 -28 12 -24 13 -24 13 13
l0 37 -122 -1 c-68 0 -116 -3 -108 -6z"/>
<path d="M598 2680 c21 -9 22 -14 22 -145 0 -131 -1 -136 -22 -145 -16 -6 5
-9 72 -9 80 -1 103 3 140 22 101 50 109 201 14 264 -22 14 -52 18 -138 20 -79
2 -104 0 -88 -7z m205 -49 c29 -29 32 -37 32 -97 0 -63 -1 -67 -37 -100 -31
-28 -45 -34 -83 -34 l-45 0 0 136 0 137 51 -5 c40 -4 58 -12 82 -37z"/>
<path d="M1618 2680 c21 -9 22 -14 22 -145 0 -131 -1 -136 -22 -145 -16 -6 5
-9 72 -9 113 -1 168 19 200 71 26 44 27 122 0 165 -34 57 -62 68 -184 70 -79
2 -104 0 -88 -7z m205 -49 c29 -29 32 -37 32 -97 0 -63 -1 -67 -37 -100 -31
-28 -45 -34 -83 -34 l-45 0 0 136 0 137 51 -5 c40 -4 58 -12 82 -37z"/>
<path d="M2648 2680 c21 -9 22 -14 22 -145 0 -131 -1 -136 -22 -145 -16 -6 5
-9 72 -9 113 -1 168 19 200 71 26 44 27 122 0 165 -34 57 -62 68 -184 70 -79
2 -104 0 -88 -7z m205 -49 c29 -29 32 -37 32 -97 0 -63 -1 -67 -37 -100 -31
-28 -45 -34 -83 -34 l-45 0 0 136 0 137 51 -5 c40 -4 58 -12 82 -37z"/>
<path d="M3668 2680 c21 -9 22 -14 22 -145 0 -131 -1 -136 -22 -145 -16 -6 5
-9 72 -9 113 -1 168 19 200 71 26 44 27 122 0 165 -34 57 -62 68 -184 70 -79
2 -104 0 -88 -7z m205 -49 c29 -29 32 -37 32 -97 0 -63 -1 -67 -37 -100 -31
-28 -45 -34 -83 -34 l-45 0 0 136 0 137 51 -5 c40 -4 58 -12 82 -37z"/>
<path d="M4688 2680 c21 -9 22 -14 22 -145 0 -131 -1 -136 -22 -145 -16 -6 5
-9 72 -9 113 -1 168 19 200 71 26 44 27 122 0 165 -34 57 -62 68 -184 70 -79
2 -104 0 -88 -7z m205 -49 c29 -29 32 -37 32 -97 0 -63 -1 -67 -37 -100 -31
-28 -45 -34 -83 -34 l-45 0 0 136 0 137 51 -5 c40 -4 58 -12 82 -37z"/>
<path d="M5700 2683 c33 -12 40 -36 40 -148 0 -112 -6 -136 -40 -148 -8 -3 41
-5 109 -4 l124 2 14 40 14 40 -31 -33 c-28 -31 -33 -33 -87 -30 l-58 3 -3 63
-3 62 50 0 c37 0 53 -5 60 -17 8 -14 10 -8 10 27 0 35 -2 41 -10 28 -7 -13
-23 -18 -59 -18 l-50 0 0 60 0 61 62 -3 c55 -3 64 -6 75 -28 12 -24 13 -24 13
13 l0 37 -122 -1 c-68 0 -116 -3 -108 -6z"/>
<path d="M6730 2683 c33 -12 40 -36 40 -148 0 -112 -6 -136 -40 -148 -8 -3 41
-5 109 -4 l124 2 14 40 14 40 -30 -32 c-27 -30 -35 -33 -90 -33 l-61 0 0 65 0
65 50 0 c43 0 52 -3 60 -22 7 -18 9 -13 9 27 0 39 -2 46 -10 33 -7 -13 -23
-18 -59 -18 l-50 0 0 60 0 61 62 -3 c55 -3 64 -6 75 -28 12 -24 13 -24 13 13
l0 37 -122 -1 c-68 0 -116 -3 -108 -6z"/>
<path d="M7750 2683 c33 -12 40 -36 40 -148 0 -112 -6 -136 -40 -148 -8 -3 41
-5 109 -4 l124 2 14 40 14 40 -31 -33 c-28 -31 -33 -33 -87 -30 l-58 3 -3 63
-3 62 51 0 c43 0 52 -3 60 -22 7 -18 9 -13 9 27 0 39 -2 46 -10 33 -7 -13 -23
-18 -59 -18 l-50 0 0 60 0 61 62 -3 c55 -3 64 -6 75 -28 12 -24 13 -24 13 13
l0 37 -122 -1 c-68 0 -116 -3 -108 -6z"/>
<path d="M8776 2683 c29 -5 34 -28 34 -154 0 -106 -7 -130 -40 -142 -8 -3 41
-5 109 -4 l124 2 14 40 14 40 -31 -33 c-28 -31 -33 -33 -87 -30 l-58 3 -3 63
-3 62 50 0 c37 0 53 -5 60 -17 8 -14 10 -8 10 27 0 35 -2 41 -10 28 -7 -13
-23 -18 -59 -18 l-50 0 0 60 0 61 62 -3 c55 -3 64 -6 75 -28 12 -24 13 -24 13
13 l0 37 -122 -1 c-68 -1 -113 -4 -102 -6z"/>
<path d="M590 2133 c33 -12 40 -36 40 -148 0 -112 -6 -136 -40 -148 -8 -3 41
-5 109 -4 l124 2 14 40 14 40 -30 -32 c-27 -30 -35 -33 -90 -33 l-61 0 0 65 0
65 50 0 c43 0 52 -3 60 -22 7 -18 9 -13 9 27 0 39 -2 46 -10 33 -7 -13 -23
-18 -59 -18 l-50 0 0 60 0 61 62 -3 c55 -3 64 -6 75 -28 12 -24 13 -24 13 13
l0 37 -122 -1 c-68 0 -116 -3 -108 -6z"/>
<path d="M1618 2130 c21 -9 22 -14 22 -145 0 -131 -1 -136 -22 -145 -16 -6 5
-9 72 -9 80 -1 103 3 140 22 101 50 109 201 14 264 -22 14 -52 18 -138 20 -79
2 -104 0 -88 -7z m205 -49 c29 -29 32 -37 32 -97 0 -63 -1 -67 -37 -100 -31
-28 -45 -34 -83 -34 l-45 0 0 136 0 137 51 -5 c40 -4 58 -12 82 -37z"/>
<path d="M2648 2130 c21 -9 22 -14 22 -145 0 -131 -1 -136 -22 -145 -16 -6 5
-9 72 -9 113 -1 168 19 200 71 26 44 27 122 0 165 -34 57 -62 68 -184 70 -79
2 -104 0 -88 -7z m205 -49 c29 -29 32 -37 32 -97 0 -63 -1 -67 -37 -100 -31
-28 -45 -34 -83 -34 l-45 0 0 136 0 137 51 -5 c40 -4 58 -12 82 -37z"/>
<path d="M3668 2130 c21 -9 22 -14 22 -145 0 -131 -1 -136 -22 -145 -16 -6 5
-9 72 -9 113 -1 168 19 200 71 26 44 27 122 0 165 -34 57 -62 68 -184 70 -79
2 -104 0 -88 -7z m205 -49 c29 -29 32 -37 32 -97 0 -63 -1 -67 -37 -100 -31
-28 -45 -34 -83 -34 l-45 0 0 136 0 137 51 -5 c40 -4 58 -12 82 -37z"/>
<path d="M4688 2130 c21 -9 22 -14 22 -145 0 -131 -1 -136 -22 -145 -16 -6 5
-9 72 -9 113 -1 168 19 200 71 26 44 27 122 0 165 -34 57 -62 68 -184 70 -79
2 -104 0 -88 -7z m205 -49 c29 -29 32 -37 32 -97 0 -63 -1 -67 -37 -100 -31
-28 -45 -34 -83 -34 l-45 0 0 136 0 137 51 -5 c40 -4 58 -12 82 -37z"/>
<path d="M5700 2133 c33 -12 40 -36 40 -148 0 -112 -6 -136 -40 -148 -8 -3 41
-5 109 -4 l124 2 14 40 14 40 -31 -33 c-28 -31 -33 -33 -87 -30 l-58 3 -3 63
-3 62 51 0 c43 0 52 -3 60 -22 7 -18 9 -13 9 27 0 39 -2 46 -10 33 -7 -13 -23
-18 -59 -18 l-50 0 0 60 0 61 62 -3 c55 -3 64 -6 75 -28 12 -24 13 -24 13 13
l0 37 -122 -1 c-68 0 -116 -3 -108 -6z"/>
<path d="M6730 2133 c33 -12 40 -36 40 -148 0 -112 -6 -136 -40 -148 -8 -3 41
-5 109 -4 l124 2 14 40 14 40 -31 -33 c-28 -31 -33 -33 -87 -30 l-58 3 -3 63
-3 62 50 0 c37 0 53 -5 60 -17 8 -14 10 -8 10 27 0 35 -2 41 -10 28 -7 -13
-23 -18 -59 -18 l-50 0 0 60 0 61 62 -3 c55 -3 64 -6 75 -28 12 -24 13 -24 13
13 l0 37 -122 -1 c-68 0 -116 -3 -108 -6z"/>
<path d="M7750 2133 c33 -12 40 -36 40 -148 0 -112 -6 -136 -40 -148 -8 -3 41
-5 109 -4 l124 2 14 40 14 40 -31 -33 c-28 -31 -33 -33 -87 -30 l-58 3 -3 63
-3 62 51 0 c43 0 52 -3 60 -22 7 -18 9 -13 9 27 0 39 -2 46 -10 33 -7 -13 -23
-18 -59 -18 l-50 0 0 60 0 61 62 -3 c55 -3 64 -6 75 -28 12 -24 13 -24 13 13
l0 37 -122 -1 c-68 0 -116 -3 -108 -6z"/>
<path d="M8770 2133 c33 -12 40 -36 40 -148 0 -112 -6 -136 -40 -148 -8 -3 41
-5 109 -4 l124 2 14 40 14 40 -31 -33 c-28 -31 -33 -33 -87 -30 l-58 3 -3 63
-3 62 51 0 c43 0 52 -3 60 -22 7 -18 9 -13 9 27 0 39 -2 46 -10 33 -7 -13 -23
-18 -59 -18 l-50 0 0 60 0 61 62 -3 c55 -3 64 -6 75 -28 12 -24 13 -24 13 13
l0 37 -122 -1 c-68 0 -116 -3 -108 -6z"/>
<path d="M598 1580 c21 -9 22 -14 22 -145 0 -131 -1 -136 -22 -145 -17 -6 -5
-9 47 -9 39 1 63 3 55 6 -28 10 -40 37 -40 90 l0 53 38 0 c41 0 56 -7 65 -30
3 -8 6 10 6 40 1 52 0 53 -15 32 -11 -16 -25 -22 -55 -22 l-39 0 0 60 0 60 54
0 c47 0 57 -3 75 -27 l21 -28 -2 35 -3 35 -115 2 c-78 1 -108 -1 -92 -7z"/>
<path d="M1618 1580 c21 -9 22 -14 22 -145 0 -131 -1 -136 -22 -145 -16 -6 5
-9 72 -9 113 -1 168 19 200 71 26 44 27 122 0 165 -34 57 -62 68 -184 70 -79
2 -104 0 -88 -7z m205 -49 c29 -29 32 -37 32 -97 0 -63 -1 -67 -37 -100 -31
-28 -45 -34 -83 -34 l-45 0 0 136 0 137 51 -5 c40 -4 58 -12 82 -37z"/>
<path d="M2648 1580 c21 -9 22 -14 22 -145 0 -131 -1 -136 -22 -145 -16 -6 5
-9 72 -9 80 -1 103 3 140 22 101 50 109 201 14 264 -22 14 -52 18 -138 20 -79
2 -104 0 -88 -7z m205 -49 c29 -29 32 -37 32 -97 0 -63 -1 -67 -37 -100 -31
-28 -45 -34 -83 -34 l-45 0 0 136 0 137 51 -5 c40 -4 58 -12 82 -37z"/>
<path d="M3668 1580 c21 -9 22 -14 22 -145 0 -131 -1 -136 -22 -145 -16 -6 5
-9 72 -9 80 -1 103 3 140 22 101 50 109 201 14 264 -22 14 -52 18 -138 20 -79
2 -104 0 -88 -7z m205 -49 c29 -29 32 -37 32 -97 0 -63 -1 -67 -37 -100 -31
-28 -45 -34 -83 -34 l-45 0 0 136 0 137 51 -5 c40 -4 58 -12 82 -37z"/>
<path d="M4688 1580 c21 -9 22 -14 22 -145 0 -131 -1 -136 -22 -145 -16 -6 5
-9 72 -9 80 -1 103 3 140 22 101 50 109 201 14 264 -22 14 -52 18 -138 20 -79
2 -104 0 -88 -7z m205 -49 c29 -29 32 -37 32 -97 0 -63 -1 -67 -37 -100 -31
-28 -45 -34 -83 -34 l-45 0 0 136 0 137 51 -5 c40 -4 58 -12 82 -37z"/>
<path d="M5700 1583 c33 -12 40 -36 40 -148 0 -112 -6 -136 -40 -148 -8 -3 41
-5 109 -4 l124 2 14 40 14 40 -31 -33 c-28 -31 -33 -33 -87 -30 l-58 3 -3 63
-3 62 51 0 c43 0 52 -3 60 -22 7 -18 9 -13 9 27 0 39 -2 46 -10 33 -7 -13 -23
-18 -59 -18 l-50 0 0 60 0 61 62 -3 c55 -3 64 -6 75 -28 12 -24 13 -24 13 13
l0 37 -122 -1 c-68 0 -116 -3 -108 -6z"/>
<path d="M6730 1583 c33 -12 40 -36 40 -148 0 -112 -6 -136 -40 -148 -8 -3 41
-5 109 -4 l124 2 14 40 14 40 -31 -33 c-28 -31 -33 -33 -87 -30 l-58 3 -3 63
-3 62 51 0 c43 0 52 -3 60 -22 7 -18 9 -13 9 27 0 39 -2 46 -10 33 -7 -13 -23
-18 -59 -18 l-50 0 0 60 0 61 62 -3 c55 -3 64 -6 75 -28 12 -24 13 -24 13 13
l0 37 -122 -1 c-68 0 -116 -3 -108 -6z"/>
<path d="M7750 1583 c33 -12 40 -36 40 -148 0 -112 -6 -136 -40 -148 -8 -3 41
-5 109 -4 l124 2 14 40 14 40 -31 -33 c-28 -31 -33 -33 -87 -30 l-58 3 -3 63
-3 62 51 0 c43 0 52 -3 60 -22 7 -18 9 -13 9 27 0 39 -2 46 -10 33 -7 -13 -23
-18 -59 -18 l-50 0 0 60 0 61 62 -3 c55 -3 64 -6 75 -28 12 -24 13 -24 13 13
l0 37 -122 -1 c-68 0 -116 -3 -108 -6z"/>
<path d="M8770 1583 c33 -12 40 -36 40 -148 0 -112 -6 -136 -40 -148 -8 -3 41
-5 109 -4 l124 2 14 40 14 40 -31 -33 c-28 -31 -33 -33 -87 -30 l-58 3 -3 63
-3 62 51 0 c43 0 52 -3 60 -22 7 -18 9 -13 9 27 0 39 -2 46 -10 33 -7 -13 -23
-18 -59 -18 l-50 0 0 60 0 61 62 -3 c55 -3 64 -6 75 -28 12 -24 13 -24 13 13
l0 37 -122 -1 c-68 0 -116 -3 -108 -6z"/>
<path d="M700 1043 c-94 -36 -141 -165 -87 -243 47 -71 122 -95 212 -70 l45
13 0 68 c0 54 4 70 18 78 13 8 3 10 -40 11 l-58 0 20 -20 c28 -28 29 -115 1
-130 -53 -28 -124 1 -152 63 -59 132 38 261 151 202 17 -9 30 -19 30 -23 0 -5
6 -17 14 -28 15 -19 15 -19 11 1 -2 11 -4 36 -4 55 -1 24 -4 31 -10 21 -7 -11
-15 -11 -41 -2 -34 12 -84 13 -110 4z"/>
<path d="M1618 1030 c21 -9 22 -14 22 -145 0 -131 -1 -136 -22 -145 -16 -6 5
-9 72 -9 80 -1 103 3 140 22 101 50 109 201 14 264 -22 14 -52 18 -138 20 -79
2 -104 0 -88 -7z m205 -49 c29 -29 32 -37 32 -97 0 -63 -1 -67 -37 -100 -31
-28 -45 -34 -83 -34 l-45 0 0 136 0 137 51 -5 c40 -4 58 -12 82 -37z"/>
<path d="M2648 1030 c21 -9 22 -14 22 -145 0 -131 -1 -136 -22 -145 -16 -6 5
-9 72 -9 80 -1 103 3 140 22 101 50 109 201 14 264 -22 14 -52 18 -138 20 -79
2 -104 0 -88 -7z m205 -49 c29 -29 32 -37 32 -97 0 -63 -1 -67 -37 -100 -31
-28 -45 -34 -83 -34 l-45 0 0 136 0 137 51 -5 c40 -4 58 -12 82 -37z"/>
<path d="M3668 1030 c21 -9 22 -14 22 -145 0 -131 -1 -136 -22 -145 -16 -6 5
-9 72 -9 113 -1 168 19 200 71 26 44 27 122 0 165 -34 57 -62 68 -184 70 -79
2 -104 0 -88 -7z m205 -49 c29 -29 32 -37 32 -97 0 -63 -1 -67 -37 -100 -31
-28 -45 -34 -83 -34 l-45 0 0 136 0 137 51 -5 c40 -4 58 -12 82 -37z"/>
<path d="M4688 1030 c21 -9 22 -14 22 -145 0 -131 -1 -136 -22 -145 -16 -6 5
-9 72 -9 113 -1 168 19 200 71 26 44 27 122 0 165 -34 57 -62 68 -184 70 -79
2 -104 0 -88 -7z m205 -49 c29 -29 32 -37 32 -97 0 -63 -1 -67 -37 -100 -31
-28 -45 -34 -83 -34 l-45 0 0 136 0 137 51 -5 c40 -4 58 -12 82 -37z"/>
<path d="M5700 1033 c33 -12 40 -36 40 -148 0 -112 -6 -136 -40 -148 -8 -3 41
-5 109 -4 l124 2 14 40 14 40 -31 -33 c-28 -31 -33 -33 -87 -30 l-58 3 -3 63
-3 62 51 0 c43 0 52 -3 60 -22 7 -18 9 -13 9 27 0 39 -2 46 -10 33 -7 -13 -23
-18 -59 -18 l-50 0 0 60 0 61 62 -3 c55 -3 64 -6 75 -28 12 -24 13 -24 13 13
l0 37 -122 -1 c-68 0 -116 -3 -108 -6z"/>
<path d="M6736 1033 c29 -5 34 -28 34 -154 0 -106 -7 -130 -40 -142 -8 -3 41
-5 109 -4 l124 2 14 40 14 40 -31 -33 c-28 -31 -33 -33 -87 -30 l-58 3 -3 63
-3 62 51 0 c43 0 52 -3 60 -22 7 -18 9 -13 9 27 0 39 -2 46 -10 33 -7 -13 -23
-18 -59 -18 l-50 0 0 60 0 61 62 -3 c55 -3 64 -6 75 -28 12 -24 13 -24 13 13
l0 37 -122 -1 c-68 -1 -113 -4 -102 -6z"/>
<path d="M7750 1033 c33 -12 40 -36 40 -148 0 -112 -6 -136 -40 -148 -8 -3 41
-5 109 -4 l124 2 14 40 14 40 -31 -33 c-28 -31 -33 -33 -87 -30 l-58 3 -3 63
-3 62 51 0 c43 0 52 -3 60 -22 7 -18 9 -13 9 27 0 39 -2 46 -10 33 -7 -13 -23
-18 -59 -18 l-50 0 0 60 0 61 62 -3 c55 -3 64 -6 75 -28 12 -24 13 -24 13 13
l0 37 -122 -1 c-68 0 -116 -3 -108 -6z"/>
<path d="M8770 1033 c33 -12 40 -36 40 -148 0 -112 -6 -136 -40 -148 -8 -3 41
-5 109 -4 l124 2 14 40 14 40 -31 -33 c-28 -31 -33 -33 -87 -30 l-58 3 -3 63
-3 62 51 0 c43 0 52 -3 60 -22 7 -18 9 -13 9 27 0 39 -2 46 -10 33 -7 -13 -23
-18 -59 -18 l-50 0 0 60 0 61 62 -3 c55 -3 64 -6 75 -28 12 -24 13 -24 13 13
l0 37 -122 -1 c-68 0 -116 -3 -108 -6z"/>
<path d="M598 480 c21 -9 22 -14 22 -145 0 -131 -1 -136 -22 -145 -17 -6 -5
-9 47 -9 48 0 64 3 49 9 -26 10 -30 21 -33 88 l-2 52 70 0 71 0 0 -65 c0 -59
-2 -67 -22 -75 -17 -6 -5 -9 47 -9 52 0 64 3 48 9 -22 9 -23 14 -23 145 0 131
1 136 23 145 16 6 4 9 -48 9 -52 0 -64 -3 -47 -9 19 -8 22 -16 22 -70 l0 -60
-68 0 -67 0 1 53 c2 70 1 66 27 77 16 6 4 9 -48 9 -52 0 -64 -3 -47 -9z"/>
<path d="M1618 480 c21 -9 22 -14 22 -145 0 -131 -1 -136 -22 -145 -16 -6 5
-9 72 -9 113 -1 168 19 200 71 26 44 27 122 0 165 -34 57 -62 68 -184 70 -79
2 -104 0 -88 -7z m205 -49 c29 -29 32 -37 32 -97 0 -63 -1 -67 -37 -100 -31
-28 -45 -34 -83 -34 l-45 0 0 136 0 137 51 -5 c40 -4 58 -12 82 -37z"/>
<path d="M2648 480 c21 -9 22 -14 22 -145 0 -131 -1 -136 -22 -145 -16 -6 5
-9 72 -9 113 -1 168 19 200 71 26 44 27 122 0 165 -34 57 -62 68 -184 70 -79
2 -104 0 -88 -7z m205 -49 c29 -29 32 -37 32 -97 0 -63 -1 -67 -37 -100 -31
-28 -45 -34 -83 -34 l-45 0 0 136 0 137 51 -5 c40 -4 58 -12 82 -37z"/>
<path d="M3668 480 c21 -9 22 -14 22 -145 0 -131 -1 -136 -22 -145 -16 -6 5
-9 72 -9 113 -1 168 19 200 71 26 44 27 122 0 165 -34 57 -62 68 -184 70 -79
2 -104 0 -88 -7z m205 -49 c29 -29 32 -37 32 -97 0 -63 -1 -67 -37 -100 -31
-28 -45 -34 -83 -34 l-45 0 0 136 0 137 51 -5 c40 -4 58 -12 82 -37z"/>
<path d="M4688 480 c21 -9 22 -14 22 -145 0 -131 -1 -136 -22 -145 -16 -6 5
-9 72 -9 80 -1 103 3 140 22 101 50 109 201 14 264 -22 14 -52 18 -138 20 -79
2 -104 0 -88 -7z m205 -49 c29 -29 32 -37 32 -97 0 -63 -1 -67 -37 -100 -31
-28 -45 -34 -83 -34 l-45 0 0 136 0 137 51 -5 c40 -4 58 -12 82 -37z"/>
<path d="M5700 483 c33 -12 40 -36 40 -148 0 -112 -6 -136 -40 -148 -8 -3 41
-5 109 -4 l124 2 14 40 14 40 -31 -33 c-28 -31 -33 -33 -87 -30 l-58 3 -3 63
-3 62 50 0 c37 0 53 -5 60 -17 8 -14 10 -8 10 27 0 35 -2 41 -10 28 -7 -13
-23 -18 -59 -18 l-50 0 0 60 0 61 62 -3 c55 -3 64 -6 75 -28 12 -24 13 -24 13
13 l0 37 -122 -1 c-68 0 -116 -3 -108 -6z"/>
<path d="M6730 483 c33 -12 40 -36 40 -148 0 -112 -6 -136 -40 -148 -8 -3 41
-5 109 -4 l124 2 14 40 14 40 -31 -33 c-28 -31 -33 -33 -87 -30 l-58 3 -3 63
-3 62 51 0 c43 0 52 -3 60 -22 7 -18 9 -13 9 27 0 39 -2 46 -10 33 -7 -13 -23
-18 -59 -18 l-50 0 0 60 0 61 62 -3 c55 -3 64 -6 75 -28 12 -24 13 -24 13 13
l0 37 -122 -1 c-68 0 -116 -3 -108 -6z"/>
<path d="M7750 483 c33 -12 40 -36 40 -148 0 -112 -6 -136 -40 -148 -8 -3 41
-5 109 -4 l124 2 14 40 14 40 -31 -33 c-28 -31 -33 -33 -87 -30 l-58 3 -3 63
-3 62 50 0 c37 0 53 -5 60 -17 8 -14 10 -8 10 27 0 35 -2 41 -10 28 -7 -13
-23 -18 -59 -18 l-50 0 0 60 0 61 62 -3 c55 -3 64 -6 75 -28 12 -24 13 -24 13
13 l0 37 -122 -1 c-68 0 -116 -3 -108 -6z"/>
<path d="M8776 483 c29 -5 34 -28 34 -154 0 -106 -7 -130 -40 -142 -8 -3 41
-5 109 -4 l124 2 14 40 14 40 -31 -33 c-28 -31 -33 -33 -87 -30 l-58 3 -3 63
-3 62 51 0 c43 0 52 -3 60 -22 7 -18 9 -13 9 27 0 39 -2 46 -10 33 -7 -13 -23
-18 -59 -18 l-50 0 0 60 0 61 62 -3 c55 -3 64 -6 75 -28 12 -24 13 -24 13 13
l0 37 -122 -1 c-68 -1 -113 -4 -102 -6z"/>
</g>
</svg>
